<?xml version="1.0" encoding="utf-8"?>
<svg viewBox="1069.19 18804.139 18825.97 3764.904" style="shape-rendering:geometricPrecision; text-rendering:geometricPrecision; image-rendering:optimizeQuality; fill-rule:evenodd; clip-rule:evenodd" xmlns="http://www.w3.org/2000/svg">
  <defs>
    <style type="text/css">
    .fil1 {fill:#ffffff;fill-rule:nonzero}
    .fil0 {fill:#ffffff;fill-rule:nonzero}
  </style>
  </defs>
  <g id="图层_x0020_1">
    <path class="fil0" d="M3041.96 19360.81c87.38,0 172.86,8.56 255.63,24.86 78.35,15.44 154.35,37.91 227.3,66.72 12.42,-14.29 27.39,-26.31 44.19,-35.36 22.15,-11.93 47.44,-18.7 74.2,-18.7 43.3,0 82.52,17.57 110.9,45.95 28.39,28.39 45.95,67.61 45.95,110.9 0,10.47 -1.12,20.99 -3.24,31.42 -0.73,3.59 -1.58,7.12 -2.54,10.59 29.48,20.57 57.8,42.08 84.87,64.44 32.47,26.81 63.51,55.02 93,84.52 121.19,121.19 218.9,266.1 285.64,427.24 64.24,155.09 99.7,325 99.7,503.03 0,178.02 -35.46,347.92 -99.7,503 -66.74,161.14 -164.45,306.05 -285.64,427.24 -121.18,121.19 -266.1,218.9 -427.24,285.66 -155.09,64.24 -325,99.7 -503.02,99.7 -156.5,0 -306.8,-27.45 -446.33,-77.78 -144.62,-52.17 -277.48,-128.96 -393.51,-225.3 -15.71,-12.6 -30.89,-25.44 -45.48,-38.5 -15.76,-14.1 -30.31,-27.81 -43.62,-41.12 -9.89,-9.89 -20.75,-21.29 -32.53,-34.15 -11.3,-12.35 -21.64,-24.08 -30.96,-35.18 -102.41,-117.54 -184.3,-253.66 -240.07,-402.7 -53.73,-143.59 -83.11,-298.9 -83.11,-460.87 0,-178.04 35.45,-347.95 99.69,-503.03 66.75,-161.15 164.46,-306.05 285.65,-427.24 121.19,-121.19 266.09,-218.9 427.23,-285.65 155.09,-64.24 325,-99.69 503.04,-99.69zm-602.4 1485.95c24.6,9.03 46.13,24.45 62.59,44.22 21.33,25.64 34.16,58.52 34.16,94.28 0,35.76 -12.83,68.62 -34.17,94.25 -16.45,19.78 -37.98,35.19 -62.58,44.23 12.94,65.19 34.89,127.18 64.48,184.62 33.65,65.3 77.29,124.78 128.92,176.4 65.24,65.24 143,117.74 229.28,153.48 83.12,34.43 174.39,53.43 270.24,53.43 95.85,0 187.12,-19 270.24,-53.43 86.27,-35.74 164.04,-88.24 229.26,-153.48l10.83 -10.89c1.52,-1.58 4.93,-5.27 9.85,-10.62 35.82,-45.05 67.89,-93.45 95.67,-144.68 27.38,-50.49 50.42,-103.26 68.63,-157.79 7.21,-28.33 12.73,-57.31 16.42,-86.79 3.64,-29.01 5.51,-58.63 5.51,-88.73 0,-95.85 -19,-187.12 -53.44,-270.25 -35.73,-86.27 -88.23,-164.04 -153.47,-229.28 -65.22,-65.23 -142.99,-117.73 -229.27,-153.47 -83.12,-34.43 -174.39,-53.43 -270.23,-53.43 -95.84,0 -187.11,19 -270.22,53.43 -86.29,35.74 -164.06,88.24 -229.3,153.47 -51.62,51.63 -95.26,111.1 -128.91,176.41 -29.59,57.43 -51.54,119.43 -64.49,184.62zm-74.59 284.07c-31.76,-5.13 -60.11,-20.38 -81.61,-42.32 -26.13,-26.66 -42.24,-63.12 -42.24,-103.25 0,-40.14 16.11,-76.6 42.24,-103.27 21.5,-21.95 49.85,-37.2 81.61,-42.33 14.05,-74.43 38.68,-145.19 72.28,-210.64 37.44,-72.91 85.81,-139.03 142.89,-196.11 71.92,-71.91 157.98,-129.92 253.73,-169.58 92.11,-38.16 192.98,-59.22 298.61,-59.22 105.63,0 206.5,21.06 298.62,59.22 95.74,39.66 181.8,97.67 253.7,169.58 67.34,67.33 122.5,147.14 161.84,235.76 2.98,6.7 5.86,13.45 8.65,20.25 -12.31,-77.35 -33.55,-151.68 -62.63,-221.89 -50.19,-121.19 -123.88,-230.39 -215.42,-321.93 -91.54,-91.54 -200.74,-165.23 -321.94,-215.44 -116.75,-48.36 -244.88,-75.05 -379.38,-75.05 -30.93,0 -60.76,1.32 -89.46,3.88 -22.76,2.03 -45.35,4.85 -67.74,8.42 -2.71,35.6 -18.27,67.6 -42.06,91.39 -26.24,26.25 -62.51,42.49 -102.56,42.49 -26.6,0 -51.66,-7.28 -73.27,-19.97 -15.61,-9.16 -29.35,-21.16 -40.51,-35.28 -50.01,23.11 -97.81,50.3 -142.99,81.14 -51.1,34.89 -98.89,74.57 -142.73,118.42 -91.54,91.54 -165.24,200.74 -215.44,321.94 -48.35,116.75 -75.04,244.88 -75.04,379.38 0,119.28 20.98,233.51 59.44,339.2 39.92,109.72 98.73,210.46 172.5,298.29l-0.03 0.02c8.77,10.05 18.13,20.4 28.03,31.01 8.89,9.52 18.63,19.57 29.21,30.15 13.71,13.72 27.32,26.73 40.79,39.01 14.51,13.24 28.65,25.59 42.39,37.03l0.03 -0.03c86.41,69.19 184.62,124.22 291.11,161.56 102.62,35.98 213.11,55.54 328.33,55.54 115.65,0 226.58,-19.74 329.6,-56.02 25.38,-8.94 50.28,-18.88 74.66,-29.77 -47.87,9.17 -97.25,13.98 -147.7,13.98 -105.64,0 -206.5,-21.06 -298.62,-59.22 -95.74,-39.66 -181.8,-97.67 -253.72,-169.59 -57.08,-57.07 -105.45,-123.19 -142.89,-196.11 -33.6,-65.44 -58.24,-136.21 -72.28,-210.64zm209.13 -1420.14c29.65,0 57.32,9 80.43,24.43 18.12,12.09 33.35,28.15 44.46,46.93 25.86,-4.27 52.12,-7.63 78.72,-10.03 33.05,-2.99 65.83,-4.52 98.21,-4.52 145.97,0 285.3,29.08 412.5,81.77 132.18,54.75 251.02,134.88 350.39,234.26 99.37,99.37 179.49,218.21 234.24,350.39 52.69,127.2 81.77,266.53 81.77,412.5 0,145.97 -29.08,285.31 -81.77,412.51 -54.75,132.17 -134.87,251.02 -234.24,350.39 -99.37,99.36 -218.22,179.48 -350.4,234.24 -63.24,26.19 -129.48,46.55 -198.05,60.4 148.91,-5.76 290.93,-37.95 421.48,-92.03 150.17,-62.2 285.44,-153.48 398.81,-266.84 113.36,-113.36 204.63,-248.62 266.83,-398.78 59.9,-144.62 92.96,-303.33 92.96,-469.89 0,-166.57 -33.06,-325.28 -92.96,-469.91 -62.2,-150.17 -153.47,-285.43 -266.83,-398.79 -27.59,-27.59 -56.36,-53.77 -86.17,-78.42 -24.79,-20.51 -50.1,-39.87 -75.85,-58.03 -11.39,10.35 -24.3,19.04 -38.35,25.7 -20.4,9.66 -43.12,15.06 -67,15.06 -43.31,0 -82.52,-17.56 -110.91,-45.94 -28.38,-28.38 -45.94,-67.59 -45.94,-110.91 0,-7.82 0.61,-15.63 1.76,-23.35l0.05 -0.42c-66.65,-25.99 -136.3,-46.35 -208.35,-60.49 -76.89,-15.09 -156.44,-22.99 -237.93,-22.99 -166.57,0 -325.29,33.06 -469.92,92.97 -150.16,62.19 -285.42,153.46 -398.77,266.82 -113.37,113.36 -204.64,248.62 -266.84,398.78 -57.58,139.01 -90.35,291.04 -92.81,450.55 13.75,-77.51 35.78,-152.2 65.16,-223.13 54.74,-132.18 134.87,-251.02 234.24,-350.39 47.69,-47.7 99.99,-91.04 156.19,-129.32 50.44,-34.36 103.99,-64.57 160.14,-90.13 -0.2,-2.97 -0.3,-5.76 -0.3,-8.34 0,-40.05 16.24,-76.32 42.49,-102.56 26.25,-26.25 62.52,-42.49 102.56,-42.49z"/>
    <path class="fil1" d="M5226.21 21249.5l0 -1177.37 273.81 0 0 956.05 883.03 0 0 221.32 -1156.84 0zm1996.73 -470.03l516.43 0 -254.41 -479.16 -262.02 479.16zm-527.07 470.03l666.64 -1177.37 264.3 0 675.38 1177.37 -307.65 0 -141.46 -257.84 -746.88 0 -137.29 257.84 -273.04 0zm2159.48 0l0 -1177.37 187.1 0 829.03 694.02c28.14,22.83 52.86,44.5 74.54,65.03 21.67,20.54 41.06,41.45 58.94,63.13 -4.18,-66.16 -7.23,-112.94 -8.75,-140.32 -1.52,-27.76 -2.28,-48.68 -2.28,-63.51l0 -618.35 246.42 0 0 1177.37 -187.1 0 -864.76 -727.49c-20.54,-18.63 -38.8,-34.98 -54.38,-50.2 -15.6,-14.83 -30.05,-30.04 -43.36,-45.63 3.42,36.51 6.47,70.73 8.37,103.06 1.9,32.32 2.66,60.46 2.66,84.04l0 636.22 -246.43 0zm2162.15 0l0 -1177.37 273.81 0 0 1177.37 -273.81 0zm1353.67 -470.03l516.43 0 -254.42 -479.16 -262.01 479.16zm-527.08 470.03l666.64 -1177.37 264.3 0 675.39 1177.37 -307.65 0 -141.46 -257.84 -746.89 0 -137.28 257.84 -273.05 0zm2161.77 0l0 -1177.37 276.09 0 0 491.33 652.95 -491.33 396.64 0 -779.97 554.84 875.8 622.53 -439.99 0 -705.43 -517.95 0 517.95 -276.09 0zm1988.36 0l0 -1177.37 1204.75 0 0 200.79 -930.94 0 0 262.4 543.05 0 0 200.79 -543.05 0 0 292.07 942.35 0 0 221.32 -1216.16 0zm2200.19 -470.03l516.43 0 -254.42 -479.16 -262.01 479.16zm-527.07 470.03l666.63 -1177.37 264.31 0 675.38 1177.37 -307.65 0 -141.46 -257.84 -746.89 0 -137.28 257.84 -273.04 0z"/>
  </g>
</svg>
