<svg width="135" height="48" viewBox="0 0 135 48" fill="none" xmlns="http://www.w3.org/2000/svg"><script xmlns=""/>
<g clip-path="url(#clip0_157_4407)">
<path d="M46.0915 6.88523H30.5448L34.3949 0H30.9517L27.0971 6.8578H0L13.5485 31.0612L8.12089 40.7445H11.5503L15.2678 34.1152L23.0458 48.0046L46.0915 6.88523ZM5.11671 9.88437H25.4189L15.2678 27.9935L5.11671 9.88437ZM28.8529 9.88437H40.9748L23.0458 41.8874L16.9871 31.0612L28.8529 9.88437Z" fill="#F5F5F3"/>
<path d="M81.1768 17.7979L74.1807 38.321H71.5561L65.7535 24.3356L59.9555 38.321H57.3262L50.3896 17.7979H53.7642L58.8672 32.917L65.1682 18.0996H66.3388L72.6672 33.0542L77.9074 17.7979H81.1768Z" fill="#F5F5F3"/>
<path d="M103.395 17.7978V38.3209H100.72L100.377 35.2121C99.3769 36.3577 98.1374 37.27 96.7461 37.8846C95.3548 38.4991 93.8456 38.801 92.3249 38.769C86.2571 38.769 81.6982 34.1697 81.6982 28.0571C81.6982 21.9445 86.2708 17.3452 92.3249 17.3452C93.8564 17.3121 95.3763 17.6174 96.7761 18.2394C98.1759 18.8614 99.4211 19.7846 100.423 20.9433L100.825 17.7978H103.395ZM100.098 28.0571C100.098 23.6955 96.9203 20.4724 92.5673 20.4724C91.5654 20.4485 90.5691 20.6285 89.6389 21.0014C88.7088 21.3744 87.8642 21.9325 87.1564 22.6418C86.4486 23.3512 85.8925 24.1971 85.5217 25.128C85.1509 26.0589 84.9733 27.0554 84.9996 28.0571C84.9715 29.0601 85.1477 30.0583 85.5175 30.9911C85.8874 31.9239 86.4432 32.7716 87.1511 33.4829C87.859 34.1941 88.7042 34.7539 89.6353 35.1282C90.5664 35.5025 91.564 35.6834 92.5673 35.6601C96.9386 35.6601 100.098 32.4232 100.098 28.0571V28.0571Z" fill="#F5F5F3"/>
<path d="M119.875 35.3311V38.3211H117.214C112.806 38.3211 110.085 35.578 110.085 31.1479V20.7149H106.473V20.1388L112.81 13.4502H113.318V17.798H119.756V20.7149H113.318V31.0427C113.318 33.7858 114.836 35.3311 117.63 35.3311H119.875Z" fill="#F5F5F3"/>
<path d="M134.616 17.6885V20.7471H132.522C128.763 20.7471 126.646 23.1839 126.646 27.1477V38.3213H123.418V17.7982H125.704L126.226 20.9208C127.68 18.8223 129.833 17.6885 132.787 17.6885H134.616Z" fill="#F5F5F3"/>
</g>
<defs>
<clipPath id="clip0_157_4407">
<rect width="134.617" height="48" fill="white"/>
</clipPath>
</defs>
</svg>