<svg width="500" height="500" xmlns="http://www.w3.org/2000/svg" enable-background="new 0 0 500 500" version="1.1">
 <g>
  <title>Layer 1</title>
  <rect fill="blue" stroke-width="2" height="500" width="500" y="0" x="0" id="svg_3"/>
  <path stroke="white" id="svg_1" fill="white" d="m424,178.68042c0,-17.72076 -6.90023,-34.38013 -19.43126,-46.91115l-36.33195,-36.33195c-12.52951,-12.52951 -29.18888,-19.4305 -46.90964,-19.4305s-34.38013,6.90023 -46.91115,19.43126l-118.99481,118.99481c-25.04692,25.04768 -25.55001,65.46485 -1.54406,91.15103l-69.55309,69.55461c-5.36752,5.36676 -8.32401,12.50303 -8.32401,20.09322c0,7.59018 2.95649,14.72645 8.31796,20.08792l0.35783,0.35859c0.00151,0.00227 0.00378,0.00378 0.0053,0.00605c5.54001,5.54001 12.81623,8.30888 20.09397,8.30888c7.27623,0 14.55472,-2.77038 20.09473,-8.30888l69.55385,-69.55461c12.57112,11.74803 28.66158,17.63906 44.76415,17.63906c16.79932,0 33.59864,-6.39488 46.3884,-19.18312l18.21175,-18.21175c3.61617,7.67718 11.42499,13.00536 20.45862,13.00536c12.46294,0 22.6026,-10.13966 22.6026,-22.6026l0,-33.46398l57.72185,-57.72185c12.528,-12.53027 19.42899,-29.18963 19.42899,-46.9104zm-309.80699,226.32709c-5.19276,5.1905 -13.64009,5.19352 -18.83285,0.00303l-0.36086,-0.36162c-2.51543,-2.51543 -3.90063,-5.86002 -3.90063,-9.41718c0,-3.55717 1.38519,-6.90175 3.90138,-9.41718l69.513,-69.51375l19.19296,19.19296l-69.513,69.51375zm217.55597,-88.23086c0,4.13817 -3.36652,7.50394 -7.50394,7.50394s-7.5047,-3.36652 -7.5047,-7.50394l0,-60.21308c0,-12.46294 -10.13966,-22.6026 -22.6026,-22.6026c-12.46294,0 -22.6026,10.13966 -22.6026,22.6026l0,22.58066c0,4.13817 -3.36652,7.50394 -7.50394,7.50394c-4.13817,0 -7.50394,-3.36652 -7.50394,-7.50394l0,-23.3334c0,-12.07711 -4.60192,-19.3488 -9.95885,-23.72301l82.0758,-82.07655c5.88498,-5.88725 15.46557,-5.88725 21.35207,0c5.8865,5.8865 5.8865,15.46482 0,21.35131l-37.36688,37.36688c-2.94817,2.94817 -2.94817,7.72863 0,10.67679c2.94892,2.94741 7.72787,2.94741 10.67679,0l37.36688,-37.36688c11.77375,-11.77375 11.77375,-30.93115 0,-42.70414c-11.7745,-11.7745 -30.93266,-11.77299 -42.70489,0l-122.77515,122.77591c-5.70417,5.70342 -8.84525,13.28603 -8.84525,21.35207c0,8.06528 3.14108,15.64865 8.8445,21.35207c5.8865,5.8865 13.61966,8.83012 21.35283,8.83012c7.73241,0 15.46557,-2.94363 21.35207,-8.83012c2.94817,-2.94817 2.94817,-7.72863 0,-10.67679c-2.94892,-2.94741 -7.72787,-2.94741 -10.67679,0c-5.88574,5.88801 -15.46633,5.8865 -21.35207,0c-2.85133,-2.85133 -4.42263,-6.64302 -4.42263,-10.67603c0,-4.03302 1.57054,-7.82395 4.42263,-10.67603l29.89622,-29.89622c2.79157,1.75437 5.66332,5.14889 5.66332,12.92063l0,23.3334c0,12.46294 10.13966,22.6026 22.6026,22.6026s22.6026,-10.13966 22.6026,-22.6026l0,-22.58066c0,-4.13817 3.36652,-7.50394 7.50394,-7.50394c4.13817,0 7.50394,3.36652 7.50394,7.50394l0,50.60222l-26.7438,26.7438c-9.84689,9.84689 -22.77736,14.76957 -35.71161,14.76882c-12.93198,-0.00151 -25.86775,-4.9242 -35.71161,-14.76882l-37.37747,-37.37747c-19.69226,-19.6915 -19.69226,-51.73171 0,-71.42321l118.99632,-118.99481c9.67818,-9.67894 22.54737,-15.00939 36.23436,-15.00939s26.55542,5.33045 36.23361,15.00939l36.33195,36.33195c9.67894,9.67818 15.00939,22.54737 15.00939,36.23436s-5.33045,26.55542 -15.00939,36.23361l-3.99368,3.99368l-12.46596,0c-25.1899,0 -45.68408,20.49417 -45.68408,45.68408l0,52.18487zm42.92126,-82.64016l-27.69172,27.69172c1.31937,-14.6629 13.02806,-26.37159 27.69172,-27.69172z"/>
 </g>

</svg>