<svg width="175" height="72" xmlns="http://www.w3.org/2000/svg" enable-background="new 0 0 460 460" version="1.1">

 <g>
  <path id="svg_1" fill="white" stroke="#EEE" d="m71.00001,22.89151c0,-3.25899 -1.26901,-6.32278 -3.57357,-8.62734l-6.68174,-6.68174c-2.30428,-2.30428 -5.36807,-3.57343 -8.62706,-3.57343s-6.32278,1.26901 -8.62734,3.57357l-21.88411,21.88411c-4.60633,4.60647 -4.69885,12.03951 -0.28397,16.76341l-12.79137,12.79165c-0.98713,0.98699 -1.53085,2.29941 -1.53085,3.6953c0,1.3959 0.54372,2.70831 1.52974,3.69433l0.06581,0.06595c0.00028,0.00042 0.0007,0.0007 0.00097,0.00111c1.01885,1.01885 2.35701,1.52807 3.69544,1.52807c1.33816,0 2.67673,-0.5095 3.69558,-1.52807l12.79151,-12.79165c2.31193,2.16056 5.2711,3.24397 8.23249,3.24397c3.08953,0 6.17906,-1.17607 8.5312,-3.52793l3.34929,-3.34929c0.66504,1.4119 2.10115,2.39179 3.7625,2.39179c2.29203,0 4.1568,-1.86477 4.1568,-4.1568l0,-6.1543l10.61551,-10.61551c2.304,-2.30442 3.57315,-5.36821 3.57315,-8.6272zm-56.976,41.62338c-0.95499,0.95457 -2.50852,0.95513 -3.46351,0.00056l-0.06637,-0.0665c-0.46261,-0.46261 -0.71736,-1.0777 -0.71736,-1.7319c0,-0.65419 0.25475,-1.26929 0.7175,-1.7319l12.784,-12.78414l3.52974,3.52974l-12.784,12.78414zm40.0103,-16.22637c0,0.76104 -0.61913,1.38003 -1.38003,1.38003s-1.38017,-0.61913 -1.38017,-1.38003l0,-11.07367c0,-2.29203 -1.86477,-4.1568 -4.1568,-4.1568c-2.29203,0 -4.1568,1.86477 -4.1568,4.1568l0,4.15277c0,0.76104 -0.61913,1.38003 -1.38003,1.38003c-0.76104,0 -1.38003,-0.61913 -1.38003,-1.38003l0,-4.2912c0,-2.22108 -0.84633,-3.5584 -1.83151,-4.36285l15.0944,-15.09454c1.0823,-1.08271 2.84424,-1.08271 3.92682,0c1.08257,1.08257 1.08257,2.8441 0,3.92668l-6.87207,6.87207c-0.54219,0.54219 -0.54219,1.42136 0,1.96355c0.54233,0.54205 1.42122,0.54205 1.96355,0l6.87207,-6.87207c2.16529,-2.16529 2.16529,-5.68849 0,-7.85364c-2.16543,-2.16543 -5.68877,-2.16515 -7.85377,0l-22.57934,22.57948c-1.04904,1.0489 -1.62671,2.44341 -1.62671,3.92682c0,1.48327 0.57767,2.87791 1.62657,3.92682c1.08257,1.08257 2.50477,1.62393 3.92696,1.62393c1.42205,0 2.84424,-0.54136 3.92682,-1.62393c0.54219,-0.54219 0.54219,-1.42136 0,-1.96355c-0.54233,-0.54205 -1.42122,-0.54205 -1.96355,0c-1.08243,1.08285 -2.84438,1.08257 -3.92682,0c-0.52438,-0.52438 -0.81336,-1.2217 -0.81336,-1.96341c0,-0.7417 0.28883,-1.43889 0.81336,-1.96341l5.49816,-5.49816c0.51339,0.32264 1.04153,0.94692 1.04153,2.37621l0,4.2912c0,2.29203 1.86477,4.1568 4.1568,4.1568s4.1568,-1.86477 4.1568,-4.1568l0,-4.15277c0,-0.76104 0.61913,-1.38003 1.38003,-1.38003c0.76104,0 1.38003,0.61913 1.38003,1.38003l0,9.30616l-4.9184,4.9184c-1.81092,1.81092 -4.18894,2.71624 -6.56765,2.7161c-2.3783,-0.00028 -4.75729,-0.9056 -6.56765,-2.7161l-6.87402,-6.87402c-3.62157,-3.62143 -3.62157,-9.51388 0,-13.13531l21.88438,-21.88411c1.7799,-1.78003 4.14664,-2.76035 6.66379,-2.76035s4.88376,0.98031 6.66365,2.76035l6.68174,6.68174c1.78003,1.7799 2.76035,4.14664 2.76035,6.66379s-0.98031,4.88376 -2.76035,6.66365l-0.73447,0.73447l-2.29259,0c-4.63263,0 -8.40167,3.76904 -8.40167,8.40167l0,9.59722zm7.89357,-15.19819l-5.09273,5.09273c0.24264,-2.69663 2.39597,-4.84995 5.09273,-5.09273z"/>
  <text font-weight="bold" xml:space="preserve" text-anchor="start" font-family="'sans-serif'" font-size="25" id="svg_2" y="35" x="82" stroke-width="0" stroke="#000" fill="white">FROST</text>
  <text xml:space="preserve" text-anchor="start" font-family="'sans-serif'" font-size="17" id="svg_4" y="55.5" x="82" stroke-width="0" stroke="#000" fill="#DDD">NETWORK</text>
 </g>
</svg>
