<?xml version="1.0" encoding="utf-8"?>
<svg viewBox="6662.259 7532.546 6656.602 6624.372" style="shape-rendering:geometricPrecision; text-rendering:geometricPrecision; image-rendering:optimizeQuality; fill-rule:evenodd; clip-rule:evenodd" xmlns="http://www.w3.org/2000/svg">
  <defs>
    <style type="text/css">
    .fil1 {fill:#332C2B;fill-rule:nonzero}
    .fil0 {fill:#332C2B;fill-rule:nonzero}
  </style>
  </defs>
  <g>
    <path class="fil0" d="M10008.36 7707.98c207.12,0 409.72,20.27 605.91,58.92 185.7,36.58 365.83,89.84 538.74,158.13 29.42,-33.86 64.9,-62.37 104.72,-83.8 52.51,-28.28 112.43,-44.32 175.88,-44.32 102.61,0 195.57,41.62 262.85,108.91 67.28,67.28 108.91,160.23 108.91,262.85 0,24.81 -2.66,49.75 -7.69,74.47 -1.73,8.49 -3.74,16.86 -6.01,25.1 69.87,48.75 136.99,99.72 201.15,152.71 76.96,63.56 150.53,130.43 220.43,200.34 287.24,287.24 518.82,630.69 677.02,1012.64 152.25,367.58 236.29,770.29 236.29,1192.26 0,421.93 -84.04,824.62 -236.29,1192.19 -158.2,381.94 -389.78,725.38 -677.02,1012.62 -287.23,287.25 -630.7,518.85 -1012.64,677.06 -367.58,152.26 -770.29,236.3 -1192.25,236.3 -370.91,0 -727.14,-65.04 -1057.86,-184.33 -342.79,-123.66 -657.69,-305.66 -932.68,-534 -37.24,-29.87 -73.22,-60.3 -107.8,-91.25 -37.36,-33.42 -71.85,-65.93 -103.4,-97.48 -23.43,-23.43 -49.16,-50.45 -77.09,-80.93 -26.8,-29.26 -51.29,-57.07 -73.39,-83.37 -242.72,-278.6 -436.82,-601.22 -569,-954.47 -127.34,-340.33 -196.99,-708.45 -196.99,-1092.34 0,-421.99 84.04,-824.7 236.29,-1192.28 158.21,-381.95 389.79,-725.39 677.04,-1012.62 287.23,-287.25 630.67,-518.83 1012.61,-677.03 367.58,-152.26 770.29,-236.28 1192.27,-236.28zm-1427.77 3521.93c58.3,21.42 109.33,57.95 148.34,104.82 50.55,60.77 80.97,138.69 80.97,223.46 0,84.74 -30.42,162.64 -80.98,223.39 -39,46.87 -90.03,83.39 -148.34,104.82 30.68,154.51 82.7,301.45 152.83,437.58 79.75,154.79 183.19,295.75 305.55,418.11 154.63,154.63 338.95,279.06 543.45,363.77 197,81.6 413.32,126.64 640.51,126.64 227.18,0 443.51,-45.04 640.52,-126.65 204.48,-84.71 388.79,-209.14 543.39,-363.76l25.66 -25.81c3.61,-3.76 11.69,-12.49 23.33,-25.17 84.92,-106.8 160.92,-221.51 226.76,-342.93 64.9,-119.66 119.5,-244.73 162.66,-373.99 17.09,-67.14 30.19,-135.82 38.94,-205.71 8.61,-68.75 13.04,-138.94 13.04,-210.29 0,-227.18 -45.04,-443.51 -126.65,-640.53 -84.69,-204.49 -209.12,-388.83 -363.74,-543.45 -154.61,-154.6 -338.93,-279.04 -543.43,-363.74 -197,-81.6 -413.32,-126.65 -640.48,-126.65 -227.17,0 -443.49,45.04 -640.48,126.64 -204.51,84.71 -388.84,209.14 -543.48,363.75 -122.35,122.37 -225.78,263.33 -305.53,418.13 -70.13,136.12 -122.15,283.06 -152.84,437.57zm-176.8 673.3c-75.27,-12.16 -142.47,-48.31 -193.43,-100.31 -61.92,-63.2 -100.12,-149.59 -100.12,-244.71 0,-95.15 38.2,-181.56 100.12,-244.77 50.96,-52.02 118.16,-88.17 193.44,-100.33 33.28,-176.42 91.68,-344.13 171.31,-499.24 88.73,-172.83 203.38,-329.53 338.66,-464.83 170.47,-170.44 374.45,-307.93 601.4,-401.93 218.32,-90.44 457.38,-140.36 707.75,-140.36 250.35,0 489.43,49.93 707.77,140.37 226.94,94 430.9,231.48 601.33,401.92 159.59,159.59 290.33,348.74 383.58,558.8 7.05,15.88 13.89,31.88 20.5,48 -29.18,-183.35 -79.52,-359.52 -148.44,-525.92 -118.97,-287.25 -293.63,-546.06 -510.59,-763.03 -216.97,-216.97 -475.79,-391.64 -763.05,-510.63 -276.71,-114.62 -580.41,-177.88 -899.19,-177.88 -73.3,0 -144.01,3.12 -212.04,9.19 -53.93,4.82 -107.47,11.5 -160.54,19.95 -6.43,84.38 -43.32,160.24 -99.69,216.62 -62.21,62.21 -148.17,100.7 -243.09,100.7 -63.06,0 -122.45,-17.26 -173.67,-47.31 -36.99,-21.72 -69.55,-50.16 -96.02,-83.64 -118.51,54.77 -231.82,119.23 -338.9,192.33 -121.11,82.68 -234.38,176.74 -338.31,280.67 -216.96,216.97 -391.63,475.79 -510.61,763.05 -114.61,276.7 -177.87,580.4 -177.87,899.19 0,282.71 49.74,553.45 140.89,803.97 94.62,260.04 234.01,498.81 408.85,706.99l-0.06 0.05c20.78,23.82 42.96,48.34 66.44,73.49 21.07,22.57 44.14,46.4 69.21,71.47 32.51,32.5 64.76,63.35 96.68,92.46 34.4,31.37 67.91,60.64 100.49,87.76l0.06 -0.07c204.81,163.99 437.58,294.42 689.98,382.92 243.22,85.27 505.1,131.65 778.2,131.65 274.1,0 537.04,-46.79 781.22,-132.79 60.13,-21.18 119.15,-44.74 176.93,-70.56 -113.44,21.75 -230.48,33.14 -350.06,33.14 -250.37,0 -489.45,-49.92 -707.78,-140.36 -226.93,-94 -430.89,-231.49 -601.37,-401.95 -135.27,-135.26 -249.93,-291.99 -338.66,-464.81 -79.64,-155.11 -138.04,-322.84 -171.32,-499.26zm495.68 -3365.97c70.27,0 135.86,21.32 190.64,57.89 42.93,28.67 79.03,66.73 105.36,111.24 61.31,-10.11 123.54,-18.07 186.59,-23.77 78.33,-7.08 156.01,-10.72 232.77,-10.72 345.96,0 676.2,68.93 977.68,193.82 313.29,129.78 594.96,319.69 830.49,555.23 235.52,235.52 425.43,517.19 555.2,830.48 124.87,301.49 193.8,631.72 193.8,977.7 0,345.98 -68.92,676.23 -193.8,977.71 -129.76,313.28 -319.68,594.96 -555.2,830.48 -235.52,235.51 -517.21,425.42 -830.51,555.2 -149.89,62.08 -306.89,110.33 -469.4,143.16 352.94,-13.64 689.55,-89.96 998.98,-218.13 355.92,-147.42 676.52,-363.77 945.23,-632.45 268.68,-268.69 485.02,-589.27 632.44,-945.19 141.97,-342.77 220.34,-718.93 220.34,-1113.7 0,-394.81 -78.36,-770.98 -220.34,-1113.78 -147.41,-355.91 -363.76,-676.5 -632.44,-945.18 -65.39,-65.4 -133.57,-127.46 -204.22,-185.89 -58.77,-48.6 -118.75,-94.49 -179.79,-137.53 -26.98,24.54 -57.59,45.14 -90.88,60.91 -48.35,22.89 -102.21,35.7 -158.8,35.7 -102.66,0 -195.61,-41.61 -262.88,-108.88 -67.27,-67.27 -108.88,-160.22 -108.88,-262.87 0,-18.54 1.43,-37.05 4.17,-55.36l0.12 -1c-157.98,-61.6 -323.07,-109.86 -493.84,-143.37 -182.24,-35.75 -370.79,-54.49 -563.94,-54.49 -394.79,0 -770.98,78.37 -1113.78,220.35 -355.9,147.41 -676.49,363.73 -945.16,632.43 -268.69,268.67 -485.03,589.25 -632.44,945.17 -136.47,329.48 -214.16,689.8 -219.98,1067.87 32.59,-183.72 84.81,-360.75 154.43,-528.85 129.76,-313.28 319.67,-594.95 555.19,-830.49 113.05,-113.04 237,-215.77 370.2,-306.51 119.54,-81.43 246.47,-153.04 379.56,-213.62 -0.46,-7.05 -0.7,-13.65 -0.7,-19.77 0,-94.92 38.49,-180.88 100.7,-243.09 62.21,-62.21 148.17,-100.7 243.09,-100.7z"/>
  </g>
</svg>
