<?xml version="1.0" encoding="UTF-8" standalone="no"?>
<!-- Created with Inkscape (http://www.inkscape.org/) -->

<svg
   width="100"
   height="100"
   viewBox="0 0 26.458333 26.458332"
   version="1.1"
   id="svg5"
   inkscape:version="1.1.2 (0a00cf5339, 2022-02-04)"
   sodipodi:docname="logo.svg"
   xmlns:inkscape="http://www.inkscape.org/namespaces/inkscape"
   xmlns:sodipodi="http://sodipodi.sourceforge.net/DTD/sodipodi-0.dtd"
   xmlns="http://www.w3.org/2000/svg"
   xmlns:svg="http://www.w3.org/2000/svg">
  <sodipodi:namedview
     id="namedview7"
     pagecolor="#ffffff"
     bordercolor="#666666"
     borderopacity="1.0"
     inkscape:pageshadow="2"
     inkscape:pageopacity="0.0"
     inkscape:pagecheckerboard="0"
     inkscape:document-units="px"
     showgrid="false"
     inkscape:zoom="5.0245017"
     inkscape:cx="104.88602"
     inkscape:cy="58.811803"
     inkscape:window-width="1920"
     inkscape:window-height="1016"
     inkscape:window-x="0"
     inkscape:window-y="27"
     inkscape:window-maximized="1"
     inkscape:current-layer="g6754"
     units="px"
     fit-margin-top="0"
     fit-margin-left="0"
     fit-margin-right="0"
     fit-margin-bottom="0" />
  <defs
     id="defs2" />
  <g
     inkscape:label="Layer 1"
     inkscape:groupmode="layer"
     id="layer1"
     transform="translate(-53.576764,-97.480021)">
    <g
       id="g1811"
       style="display:inline">
      <g
         id="g6761"
         transform="matrix(0.98006122,0,0,0.96633528,1.2954138,3.8339272)">
        <g
           id="g6754">
          <g
             id="g12533"
             transform="translate(-26.996604)">
            <path
               style="fill:#00ffff;fill-opacity:1;stroke:none;stroke-width:0.271876;stroke-miterlimit:4;stroke-dasharray:none;stroke-opacity:1"
               d="m 91.770498,117.86307 -2.050139,-2.08604 0.386228,-0.39283 0.386229,-0.39283 1.681136,1.70885 1.681137,1.70886 1.681137,-1.70886 1.681134,-1.70885 0.386229,0.39283 0.386229,0.39283 -2.050138,2.08604 -2.05014,2.08603 h -0.03445 -0.03445 z m -5.683066,-5.78024 -1.344023,-1.36828 4.55584,-4.63373 4.55584,-4.63373 4.556051,4.63394 4.55604,4.63395 -1.36141,1.38469 -1.36141,1.38469 -0.386152,-0.39274 -0.38614,-0.39276 0.973842,-0.99227 0.97385,-0.99227 -3.782333,-3.84701 -3.782338,-3.847 -3.782339,3.847 -3.782339,3.84701 0.973064,0.99147 0.973065,0.99147 -0.36599,0.37693 -0.36599,0.37693 h -0.03655 -0.03655 z"
               id="path1825"
               sodipodi:nodetypes="cccccccccccccccccccccccccccccccccccccc" />
            <path
               style="fill:#9b26b6;fill-opacity:1;stroke:none;stroke-width:0.264583;stroke-miterlimit:4;stroke-dasharray:none;stroke-opacity:1"
               d="m 91.517601,121.57304 -2.303132,-2.34325 0.386294,-0.3929 0.386293,-0.3929 1.934017,1.96621 1.934016,1.9662 1.934708,-1.9669 1.934707,-1.96691 0.384628,0.39533 0.38463,0.39533 -2.302885,2.34151 -2.302885,2.34152 h -0.03363 -0.03363 z m -1.967593,-18.9644 -0.366361,-0.37731 2.335721,-2.375653 2.335721,-2.375656 2.33651,2.37646 2.336512,2.376459 -0.386409,0.39301 -0.38641,0.39302 -1.950102,-1.98256 -1.950101,-1.982555 -1.933865,1.966055 -1.933864,1.96605 h -0.0355 -0.03549 z"
               id="path6425"
               sodipodi:nodetypes="cccccccccccccccccccccccccccccc" />
          </g>
          <path
             style="fill:#ffffff;fill-opacity:1;stroke:none;stroke-width:0.489378;stroke-miterlimit:4;stroke-dasharray:none;stroke-opacity:1"
             d="m 56.955655,113.87834 -3.076416,-3.12957 3.077526,-3.12958 3.077527,-3.12959 0.588084,0.60092 0.588085,0.60093 -0.369684,0.37133 -0.369684,0.37133 -0.221,-0.21786 -0.221,-0.21787 -2.317997,2.35838 -2.317998,2.35837 2.319515,2.35991 2.319516,2.35992 2.319872,-2.35953 2.319873,-2.35954 -0.958549,-0.97668 -0.958549,-0.97668 0.371658,-0.37331 0.371658,-0.37332 1.343981,1.36696 1.343983,1.36696 -3.076993,3.12904 -3.076993,3.12905 z m 13.651568,-2e-4 -3.076596,-3.12975 1.344342,-1.36605 1.34434,-1.36604 0.371446,0.37311 0.371446,0.3731 -0.958426,0.97655 -0.958426,0.97656 2.319264,2.35966 2.319261,2.35966 2.320126,-2.3598 2.320125,-2.35979 -2.318122,-2.35849 -2.318118,-2.3585 -0.221791,0.21864 -0.221792,0.21865 -0.368744,-0.37505 -0.368744,-0.37505 0.589575,-0.59687 0.589575,-0.59688 3.075886,3.12903 3.075886,3.12903 -3.076959,3.12901 -3.076961,3.12902 z"
             id="path1817" />
        </g>
      </g>
    </g>
  </g>
</svg>
