<?xml version="1.0" encoding="UTF-8"?>
<svg xmlns="http://www.w3.org/2000/svg" xmlns:xlink="http://www.w3.org/1999/xlink" width="175px" height="54px" viewBox="0 0 175 54" version="1.1">
<defs>
<clipPath id="clip1">
  <path d="M 41 44 L 51 44 L 51 53.980469 L 41 53.980469 Z M 41 44 "/>
</clipPath>
<clipPath id="clip2">
  <path d="M 55 44 L 65 44 L 65 53.980469 L 55 53.980469 Z M 55 44 "/>
</clipPath>
<clipPath id="clip3">
  <path d="M 68 44 L 79 44 L 79 53.980469 L 68 53.980469 Z M 68 44 "/>
</clipPath>
<clipPath id="clip4">
  <path d="M 82 44 L 92 44 L 92 53.980469 L 82 53.980469 Z M 82 44 "/>
</clipPath>
<clipPath id="clip5">
  <path d="M 96 44 L 106 44 L 106 53.980469 L 96 53.980469 Z M 96 44 "/>
</clipPath>
<clipPath id="clip6">
  <path d="M 110 44 L 120 44 L 120 53.980469 L 110 53.980469 Z M 110 44 "/>
</clipPath>
<clipPath id="clip7">
  <path d="M 124 44 L 134 44 L 134 53.980469 L 124 53.980469 Z M 124 44 "/>
</clipPath>
<clipPath id="clip8">
  <path d="M 8 0.0195312 L 27 0.0195312 L 27 34 L 8 34 Z M 8 0.0195312 "/>
</clipPath>
</defs>
<g id="surface1">
<g clip-path="url(#clip1)" clip-rule="nonzero">
<path style=" stroke:none;fill-rule:nonzero;fill:rgb(10.588235%,68.235294%,83.137255%);fill-opacity:1;" d="M 42.269531 44.886719 L 49.53125 44.886719 C 50.03125 44.886719 50.4375 45.292969 50.4375 45.792969 C 50.4375 46.296875 50.03125 46.703125 49.53125 46.703125 L 47.714844 46.703125 C 47.210938 46.703125 46.804688 47.109375 46.804688 47.613281 L 46.804688 53.070312 C 46.804688 53.574219 46.402344 53.980469 45.898438 53.980469 C 45.398438 53.980469 44.992188 53.574219 44.992188 53.070312 L 44.992188 47.613281 C 44.992188 47.109375 44.585938 46.703125 44.085938 46.703125 L 42.269531 46.703125 C 41.769531 46.703125 41.363281 46.296875 41.363281 45.792969 C 41.363281 45.292969 41.769531 44.886719 42.269531 44.886719 Z M 42.269531 44.886719 "/>
</g>
<g clip-path="url(#clip2)" clip-rule="nonzero">
<path style=" stroke:none;fill-rule:nonzero;fill:rgb(10.588235%,68.235294%,83.137255%);fill-opacity:1;" d="M 55.160156 45.792969 C 55.160156 45.292969 55.566406 44.886719 56.066406 44.886719 L 63.328125 44.886719 C 63.828125 44.886719 64.234375 45.292969 64.234375 45.792969 C 64.234375 46.296875 63.828125 46.703125 63.328125 46.703125 L 56.066406 46.703125 C 55.566406 46.707031 55.160156 46.296875 55.160156 45.792969 Z M 55.160156 49.433594 C 55.160156 48.933594 55.566406 48.527344 56.066406 48.527344 L 63.328125 48.527344 C 63.828125 48.527344 64.234375 48.933594 64.234375 49.433594 C 64.234375 49.9375 63.828125 50.34375 63.328125 50.34375 L 56.066406 50.34375 C 55.566406 50.34375 55.160156 49.9375 55.160156 49.433594 Z M 55.160156 53.074219 C 55.160156 52.570312 55.566406 52.164062 56.066406 52.164062 L 63.328125 52.164062 C 63.828125 52.164062 64.234375 52.570312 64.234375 53.074219 C 64.234375 53.574219 63.828125 53.980469 63.328125 53.980469 L 56.066406 53.980469 C 55.566406 53.980469 55.160156 53.574219 55.160156 53.074219 Z M 55.160156 53.074219 "/>
</g>
<g clip-path="url(#clip3)" clip-rule="nonzero">
<path style=" stroke:none;fill-rule:nonzero;fill:rgb(10.588235%,68.235294%,83.137255%);fill-opacity:1;" d="M 77.125 46.707031 L 71.679688 46.707031 C 71.175781 46.707031 70.769531 47.113281 70.769531 47.613281 C 70.769531 48.117188 71.175781 48.523438 71.679688 48.523438 L 76.128906 48.523438 C 77.179688 48.523438 78.03125 49.375 78.03125 50.429688 L 78.03125 51.953125 C 78.03125 53.074219 77.128906 53.980469 76.007812 53.980469 L 69.863281 53.980469 C 69.359375 53.980469 68.953125 53.574219 68.953125 53.074219 C 68.953125 52.570312 69.359375 52.164062 69.863281 52.164062 L 75.308594 52.164062 C 75.808594 52.164062 76.214844 51.757812 76.214844 51.253906 C 76.214844 50.753906 75.808594 50.347656 75.308594 50.347656 L 70.75 50.347656 C 69.757812 50.347656 68.953125 49.539062 68.953125 48.546875 L 68.953125 47.324219 C 68.953125 45.976562 70.042969 44.886719 71.386719 44.886719 L 77.125 44.886719 C 77.625 44.886719 78.03125 45.292969 78.03125 45.796875 C 78.03125 46.296875 77.625 46.707031 77.125 46.707031 Z M 77.125 46.707031 "/>
</g>
<g clip-path="url(#clip4)" clip-rule="nonzero">
<path style=" stroke:none;fill-rule:nonzero;fill:rgb(10.588235%,68.235294%,83.137255%);fill-opacity:1;" d="M 83.660156 44.886719 L 90.917969 44.886719 C 91.421875 44.886719 91.828125 45.292969 91.828125 45.792969 C 91.828125 46.296875 91.421875 46.703125 90.917969 46.703125 L 88.695312 46.703125 C 88.421875 46.703125 88.199219 46.925781 88.199219 47.199219 L 88.199219 53.070312 C 88.199219 53.574219 87.792969 53.980469 87.292969 53.980469 C 86.789062 53.980469 86.386719 53.574219 86.386719 53.070312 L 86.386719 47.203125 C 86.386719 46.925781 86.164062 46.707031 85.890625 46.707031 L 83.664062 46.707031 C 83.164062 46.707031 82.757812 46.300781 82.757812 45.796875 C 82.753906 45.292969 83.15625 44.886719 83.660156 44.886719 Z M 83.660156 44.886719 "/>
</g>
<g clip-path="url(#clip5)" clip-rule="nonzero">
<path style=" stroke:none;fill-rule:nonzero;fill:rgb(10.588235%,68.235294%,83.137255%);fill-opacity:1;" d="M 105.625 47.199219 L 105.625 53.074219 C 105.625 53.574219 105.21875 53.980469 104.71875 53.980469 C 104.214844 53.980469 103.808594 53.574219 103.808594 53.074219 L 103.808594 47.613281 C 103.808594 47.113281 103.40625 46.707031 102.902344 46.707031 L 99.273438 46.707031 C 98.773438 46.707031 98.367188 47.113281 98.367188 47.613281 L 98.367188 53.074219 C 98.367188 53.574219 97.960938 53.980469 97.460938 53.980469 C 96.957031 53.980469 96.550781 53.574219 96.550781 53.074219 L 96.550781 47.199219 C 96.550781 45.921875 97.585938 44.886719 98.863281 44.886719 L 103.320312 44.886719 C 104.589844 44.886719 105.625 45.921875 105.625 47.199219 Z M 105.625 47.199219 "/>
</g>
<g clip-path="url(#clip6)" clip-rule="nonzero">
<path style=" stroke:none;fill-rule:nonzero;fill:rgb(10.588235%,68.235294%,83.137255%);fill-opacity:1;" d="M 110.34375 45.792969 C 110.34375 45.292969 110.75 44.886719 111.253906 44.886719 L 118.511719 44.886719 C 119.015625 44.886719 119.417969 45.292969 119.417969 45.792969 C 119.417969 46.296875 119.015625 46.703125 118.511719 46.703125 L 111.253906 46.703125 C 110.75 46.707031 110.34375 46.296875 110.34375 45.792969 Z M 110.34375 49.433594 C 110.34375 48.933594 110.75 48.527344 111.253906 48.527344 L 118.511719 48.527344 C 119.015625 48.527344 119.417969 48.933594 119.417969 49.433594 C 119.417969 49.9375 119.015625 50.34375 118.511719 50.34375 L 111.253906 50.34375 C 110.75 50.34375 110.34375 49.9375 110.34375 49.433594 Z M 110.34375 53.074219 C 110.34375 52.570312 110.75 52.164062 111.253906 52.164062 L 118.511719 52.164062 C 119.015625 52.164062 119.417969 52.570312 119.417969 53.074219 C 119.417969 53.574219 119.015625 53.980469 118.511719 53.980469 L 111.253906 53.980469 C 110.75 53.980469 110.34375 53.574219 110.34375 53.074219 Z M 110.34375 53.074219 "/>
</g>
<g clip-path="url(#clip7)" clip-rule="nonzero">
<path style=" stroke:none;fill-rule:nonzero;fill:rgb(10.588235%,68.235294%,83.137255%);fill-opacity:1;" d="M 125.050781 44.886719 L 132.308594 44.886719 C 132.8125 44.886719 133.21875 45.292969 133.21875 45.792969 C 133.21875 46.296875 132.8125 46.703125 132.308594 46.703125 L 130.078125 46.703125 C 129.804688 46.703125 129.585938 46.921875 129.585938 47.195312 L 129.585938 53.070312 C 129.585938 53.574219 129.179688 53.980469 128.679688 53.980469 C 128.179688 53.980469 127.773438 53.574219 127.773438 53.070312 L 127.773438 47.195312 C 127.773438 46.921875 127.554688 46.703125 127.28125 46.703125 L 125.050781 46.703125 C 124.546875 46.703125 124.144531 46.296875 124.144531 45.792969 C 124.144531 45.292969 124.546875 44.886719 125.050781 44.886719 Z M 125.050781 44.886719 "/>
</g>
<g clip-path="url(#clip8)" clip-rule="nonzero">
<path style=" stroke:none;fill-rule:nonzero;fill:rgb(100%,100%,100%);fill-opacity:1;" d="M 24.117188 33.582031 L 25.933594 32.777344 C 26.792969 32.394531 27.179688 31.390625 26.800781 30.53125 L 13.761719 0.984375 C 13.382812 0.121094 12.378906 -0.265625 11.519531 0.113281 L 9.707031 0.917969 C 8.847656 1.296875 8.460938 2.304688 8.839844 3.164062 L 21.875 32.710938 C 22.257812 33.570312 23.257812 33.957031 24.117188 33.582031 Z M 24.117188 33.582031 "/>
</g>
<path style=" stroke:none;fill-rule:nonzero;fill:rgb(100%,100%,100%);fill-opacity:1;" d="M 0.753906 32.648438 L 2.855469 33.605469 C 3.628906 33.957031 4.542969 33.617188 4.890625 32.839844 L 15.558594 9.316406 C 15.910156 8.542969 15.570312 7.628906 14.796875 7.277344 L 12.695312 6.320312 C 11.921875 5.96875 11.007812 6.308594 10.660156 7.085938 L -0.0078125 30.609375 C -0.359375 31.382812 -0.0195312 32.296875 0.753906 32.648438 Z M 0.753906 32.648438 "/>
<path style=" stroke:none;fill-rule:nonzero;fill:rgb(12.941176%,18.039216%,53.72549%);fill-opacity:1;" d="M 37.34375 24.121094 L 37.34375 26.613281 C 37.34375 27.363281 36.734375 27.972656 35.984375 27.972656 L 23.027344 27.972656 L 23.027344 22.761719 L 35.984375 22.761719 C 36.730469 22.761719 37.34375 23.367188 37.34375 24.121094 Z M 37.34375 24.121094 "/>
<path style=" stroke:none;fill-rule:nonzero;fill:rgb(100%,100%,100%);fill-opacity:1;" d="M 55.175781 20.3125 L 55.175781 15.53125 C 55.175781 14.042969 53.972656 12.835938 52.484375 12.835938 L 42.726562 12.835938 C 41.316406 12.835938 40.175781 13.980469 40.175781 15.394531 L 40.175781 31.410156 C 40.175781 32.222656 39.519531 32.878906 38.710938 32.878906 L 36.640625 32.878906 C 35.832031 32.878906 35.179688 32.222656 35.179688 31.410156 L 35.179688 13.300781 C 35.179688 10.277344 37.625 7.820312 40.644531 7.820312 L 54.800781 7.820312 C 57.773438 7.820312 60.179688 10.234375 60.179688 13.210938 L 60.179688 22.917969 C 60.179688 25.652344 57.96875 27.863281 55.242188 27.863281 L 55.175781 27.863281 L 57.675781 30.367188 C 58.597656 31.292969 57.945312 32.875 56.640625 32.875 L 54.53125 32.875 C 54.144531 32.875 53.773438 32.71875 53.496094 32.445312 L 49.355469 28.292969 C 49.082031 28.019531 48.707031 27.863281 48.320312 27.863281 L 44.878906 27.863281 C 44.070312 27.863281 43.414062 27.207031 43.414062 26.398438 L 43.414062 24.324219 C 43.414062 23.511719 44.070312 22.855469 44.878906 22.855469 L 52.640625 22.855469 C 54.039062 22.855469 55.175781 21.71875 55.175781 20.3125 Z M 55.175781 20.3125 "/>
<path style=" stroke:none;fill-rule:nonzero;fill:rgb(100%,100%,100%);fill-opacity:1;" d="M 75.113281 7.820312 L 93.105469 7.820312 C 93.914062 7.820312 94.566406 8.480469 94.566406 9.289062 L 94.566406 11.363281 C 94.566406 12.175781 93.914062 12.832031 93.105469 12.832031 L 77.003906 12.832031 C 75.660156 12.832031 74.566406 13.925781 74.566406 15.273438 L 74.566406 25.039062 C 74.566406 26.601562 75.832031 27.867188 77.390625 27.867188 L 93.105469 27.867188 C 93.914062 27.867188 94.566406 28.523438 94.566406 29.332031 L 94.566406 31.410156 C 94.566406 32.21875 93.914062 32.875 93.105469 32.875 L 75.007812 32.875 C 72.003906 32.875 69.566406 30.433594 69.566406 27.425781 L 69.566406 13.382812 C 69.566406 10.3125 72.050781 7.820312 75.113281 7.820312 Z M 75.113281 7.820312 "/>
<path style=" stroke:none;fill-rule:nonzero;fill:rgb(100%,100%,100%);fill-opacity:1;" d="M 104.167969 7.820312 L 126.238281 7.820312 C 127.046875 7.820312 127.703125 8.480469 127.703125 9.289062 L 127.703125 11.363281 C 127.703125 12.175781 127.046875 12.832031 126.238281 12.832031 L 118.929688 12.832031 C 118.253906 12.832031 117.703125 13.382812 117.703125 14.058594 L 117.703125 31.40625 C 117.703125 32.21875 117.046875 32.875 116.238281 32.875 L 114.167969 32.875 C 113.359375 32.875 112.707031 32.21875 112.707031 31.40625 L 112.707031 13.980469 C 112.707031 13.347656 112.195312 12.832031 111.5625 12.832031 L 104.167969 12.832031 C 103.359375 12.832031 102.703125 12.175781 102.703125 11.367188 L 102.703125 9.292969 C 102.703125 8.480469 103.359375 7.820312 104.167969 7.820312 Z M 104.167969 7.820312 "/>
<path style=" stroke:none;fill-rule:nonzero;fill:rgb(100%,100%,100%);fill-opacity:1;" d="M 140.714844 9.292969 L 140.714844 31.410156 C 140.714844 32.21875 140.0625 32.875 139.253906 32.875 L 137.183594 32.875 C 136.375 32.875 135.71875 32.21875 135.71875 31.410156 L 135.71875 9.292969 C 135.71875 8.480469 136.375 7.824219 137.183594 7.824219 L 139.253906 7.824219 C 140.058594 7.820312 140.714844 8.480469 140.714844 9.292969 Z M 140.714844 9.292969 "/>
<path style=" stroke:none;fill-rule:nonzero;fill:rgb(100%,100%,100%);fill-opacity:1;" d="M 155.523438 7.820312 L 173.570312 7.820312 C 174.378906 7.820312 175.035156 8.480469 175.035156 9.289062 L 175.035156 11.363281 C 175.035156 12.175781 174.378906 12.832031 173.570312 12.832031 L 157.933594 12.832031 C 156.332031 12.832031 155.035156 14.132812 155.035156 15.734375 L 155.035156 24.613281 C 155.035156 26.40625 156.488281 27.863281 158.277344 27.863281 L 173.570312 27.863281 C 174.378906 27.863281 175.035156 28.519531 175.035156 29.328125 L 175.035156 31.402344 C 175.035156 32.214844 174.378906 32.871094 173.570312 32.871094 L 155.558594 32.871094 C 152.507812 32.871094 150.035156 30.390625 150.035156 27.335938 L 150.035156 13.320312 C 150.035156 10.285156 152.492188 7.820312 155.523438 7.820312 Z M 155.523438 7.820312 "/>
<path style=" stroke:none;fill-rule:nonzero;fill:rgb(10.588235%,68.235294%,83.137255%);fill-opacity:1;" d="M 11.347656 24.027344 L 11.347656 26.722656 C 11.347656 27.417969 11.910156 27.980469 12.601562 27.980469 L 25.773438 27.96875 L 23.480469 22.769531 L 12.601562 22.765625 C 11.914062 22.769531 11.347656 23.332031 11.347656 24.027344 Z M 11.347656 24.027344 "/>
</g>
</svg>
