<?xml version="1.0" encoding="UTF-8"?>
<svg xmlns="http://www.w3.org/2000/svg" id="Layer_2" viewBox="0 0 229.61 52.6"><defs><style>.cls-1{fill:#fff;}</style></defs><g id="Layer_1-2"><path class="cls-1" d="M212.74,32.75c-.28,.03-.61,.09-.98,.19-.37,.1-.81,.15-1.31,.15-1.44,0-2.48-.38-3.12-1.14s-.95-1.89-.95-3.39v-9.67h4.96c1.19,0,1.78-.55,1.78-1.65s-.59-1.65-1.78-1.65h-2.26c-2.34-.16-2.67-1.98-2.7-2.72v-1.65c0-1.44-.71-2.16-2.12-2.16s-2.16,.72-2.16,2.16V28.89c0,2.52,.64,4.44,1.91,5.77,1.27,1.33,3.21,1.99,5.81,1.99,.45,0,.97-.04,1.55-.13,.58-.08,1.04-.2,1.38-.34,.4-.11,.67-.35,.83-.7,.16-.35,.23-.76,.23-1.21,0-.59-.1-1-.3-1.21-.2-.21-.45-.32-.76-.32Z"/><path class="cls-1" d="M86.21,36.8c-2.15,0-4.01-.45-5.58-1.36-1.57-.91-2.78-2.18-3.64-3.84-.86-1.65-1.29-3.6-1.29-5.84,0-3.33,.95-5.96,2.84-7.89,1.9-1.92,4.45-2.89,7.67-2.89,1.01,0,2.06,.15,3.17,.45,1.11,.3,2.13,.8,3.08,1.49,.46,.29,.73,.65,.8,1.1,.07,.45,0,.86-.22,1.25-.22,.39-.52,.65-.93,.78-.4,.13-.86,.05-1.38-.24-.69-.49-1.39-.84-2.11-1.06-.72-.22-1.41-.32-2.07-.32-2.04,0-3.61,.64-4.72,1.92-1.11,1.28-1.66,3.1-1.66,5.45s.55,4.2,1.66,5.54c1.11,1.34,2.68,2,4.72,2,.66,0,1.34-.1,2.05-.3,.7-.2,1.41-.55,2.13-1.03,.52-.29,.97-.36,1.36-.22,.39,.14,.67,.41,.86,.8,.19,.39,.24,.8,.17,1.25-.07,.45-.34,.81-.8,1.1-.92,.66-1.92,1.14-2.99,1.42s-2.12,.43-3.12,.43Z"/><path class="cls-1" d="M104.26,36.8c-2.13,0-3.96-.45-5.52-1.34-1.55-.89-2.75-2.15-3.6-3.77-.85-1.62-1.27-3.55-1.27-5.8s.42-4.17,1.27-5.8c.85-1.62,2.05-2.88,3.6-3.77,1.55-.89,3.39-1.34,5.52-1.34s3.88,.45,5.43,1.34c1.55,.89,2.76,2.15,3.62,3.77,.86,1.62,1.29,3.56,1.29,5.8s-.43,4.17-1.29,5.8c-.86,1.62-2.07,2.88-3.62,3.77-1.55,.89-3.36,1.34-5.43,1.34Zm0-3.36c1.78,0,3.22-.65,4.31-1.94,1.09-1.29,1.64-3.16,1.64-5.6s-.55-4.3-1.64-5.58c-1.09-1.28-2.53-1.92-4.31-1.92s-3.26,.64-4.35,1.92c-1.09,1.28-1.64,3.14-1.64,5.58s.55,4.31,1.64,5.6c1.09,1.29,2.54,1.94,4.35,1.94Z"/><path class="cls-1" d="M118.97,36.71c-1.44,0-2.15-.73-2.15-2.2V17.27c0-1.46,.7-2.2,2.11-2.2s2.11,.73,2.11,2.2v1.59c.72-1.26,1.7-2.23,2.95-2.89,1.25-.66,2.65-.99,4.2-.99,4.97,0,7.45,2.82,7.45,8.45v11.07c0,1.47-.72,2.2-2.15,2.2s-2.2-.73-2.2-2.2v-10.82c0-1.81-.35-3.13-1.06-3.96-.7-.83-1.8-1.25-3.3-1.25-1.75,0-3.15,.55-4.2,1.66-1.05,1.11-1.57,2.56-1.57,4.37v10c0,1.47-.73,2.2-2.2,2.2Z"/><path class="cls-1" d="M140.77,36.71c-1.44,0-2.15-.73-2.15-2.2V17.27c0-1.46,.7-2.2,2.11-2.2s2.11,.73,2.11,2.2v1.59c.72-1.26,1.7-2.23,2.95-2.89,1.25-.66,2.65-.99,4.2-.99,4.97,0,7.45,2.82,7.45,8.45v11.07c0,1.47-.72,2.2-2.15,2.2s-2.2-.73-2.2-2.2v-10.82c0-1.81-.35-3.13-1.06-3.96-.7-.83-1.8-1.25-3.3-1.25-1.75,0-3.15,.55-4.2,1.66-1.05,1.11-1.57,2.56-1.57,4.37v10c0,1.47-.73,2.2-2.2,2.2Z"/><path class="cls-1" d="M170.93,36.8c-3.45,0-6.16-.97-8.14-2.91-1.98-1.94-2.97-4.59-2.97-7.95,0-2.15,.44-4.06,1.31-5.71,.88-1.65,2.09-2.94,3.64-3.86,1.55-.92,3.33-1.38,5.34-1.38,2.9,0,5.18,.93,6.85,2.78,1.67,1.85,2.5,4.4,2.5,7.65,0,.98-.57,1.47-1.72,1.47h-13.7c.32,4.37,2.63,6.55,6.94,6.55,.86,0,1.77-.11,2.71-.32s1.87-.61,2.76-1.19c.6-.34,1.13-.47,1.57-.37,.45,.1,.77,.34,.97,.73,.2,.39,.24,.82,.11,1.29-.13,.47-.47,.88-1.01,1.23-.98,.66-2.12,1.16-3.43,1.49-1.31,.33-2.55,.5-3.73,.5Zm-.65-18.74c-1.81,0-3.25,.56-4.31,1.68-1.06,1.12-1.71,2.61-1.94,4.48h11.76c-.09-1.95-.6-3.47-1.55-4.55s-2.27-1.62-3.96-1.62Z"/><path class="cls-1" d="M192.33,36.8c-2.15,0-4.01-.45-5.58-1.36-1.57-.91-2.78-2.18-3.64-3.84-.86-1.65-1.29-3.6-1.29-5.84,0-3.33,.95-5.96,2.84-7.89,1.9-1.92,4.45-2.89,7.67-2.89,1.01,0,2.06,.15,3.17,.45,1.11,.3,2.13,.8,3.08,1.49,.46,.29,.73,.65,.8,1.1,.07,.45,0,.86-.22,1.25s-.52,.65-.93,.78c-.4,.13-.86,.05-1.38-.24-.69-.49-1.39-.84-2.11-1.06-.72-.22-1.41-.32-2.07-.32-2.04,0-3.61,.64-4.72,1.92-1.11,1.28-1.66,3.1-1.66,5.45s.55,4.2,1.66,5.54c1.11,1.34,2.68,2,4.72,2,.66,0,1.34-.1,2.05-.3,.7-.2,1.41-.55,2.13-1.03,.52-.29,.97-.36,1.36-.22,.39,.14,.67,.41,.86,.8,.19,.39,.24,.8,.17,1.25-.07,.45-.34,.81-.8,1.1-.92,.66-1.92,1.14-2.99,1.42-1.08,.29-2.12,.43-3.12,.43Z"/><g><circle class="cls-1" cx="26.76" cy="27.03" r="2.81"/><circle class="cls-1" cx="37.64" cy="27.03" r="2.81"/><path class="cls-1" d="M46.23,19.99c-2.72-4.25-7.82-7.11-13.66-7.11s-10.89,2.83-13.62,7.05c-5.53,2.07-5.4,7.11-5.4,7.11,0,0-.13,5.04,5.4,7.11,2.73,4.21,7.81,7.05,13.62,7.05s10.94-2.86,13.66-7.11c5.37-2.11,5.23-7.05,5.23-7.05,0,0,.13-4.94-5.23-7.05Zm-3.16,12.87c-4.77,1.58-10.55,1.6-10.55,1.6,0,0-5.78-.02-10.55-1.6-4.77-1.58-4.66-5.82-4.66-5.82,0,0-.11-4.24,4.66-5.82,4.77-1.58,10.55-1.6,10.55-1.6,0,0,5.78,.02,10.55,1.6,4.77,1.58,4.66,5.82,4.66,5.82,0,0,.11,4.24-4.66,5.82Z"/></g><path class="cls-1" d="M58.64,0H5.65C2.53,0,0,2.53,0,5.65V46.95c0,3.12,2.53,5.65,5.65,5.65H58.64c3.12,0,5.65-2.53,5.65-5.65V5.65c0-3.12-2.53-5.65-5.65-5.65Zm.66,45.6c0,.96-.78,1.73-1.73,1.73H6.72c-.96,0-1.73-.78-1.73-1.73V7c0-.96,.78-1.73,1.73-1.73H57.57c.96,0,1.73,.78,1.73,1.73V45.6Z"/><g><path class="cls-1" d="M220.05,15.85c-.31,0-.46-.16-.46-.47v-5.05h-1.87c-.27,0-.4-.13-.4-.39s.13-.38,.4-.38h4.65c.27,0,.41,.13,.41,.38s-.14,.39-.41,.39h-1.87v5.05c0,.31-.15,.47-.45,.47Z"/><path class="cls-1" d="M223.91,15.85c-.28,0-.42-.14-.42-.43v-5.48c0-.29,.14-.43,.42-.43,.12,0,.22,.02,.29,.07,.07,.05,.13,.12,.19,.23l2.17,4.06,2.17-4.06c.06-.11,.12-.18,.19-.23,.07-.05,.16-.07,.28-.07,.27,0,.41,.14,.41,.43v5.48c0,.29-.14,.43-.41,.43s-.42-.14-.42-.43v-4.19l-1.85,3.42c-.05,.09-.1,.15-.15,.19-.05,.04-.13,.06-.22,.06-.1,0-.18-.02-.23-.07-.06-.04-.11-.11-.15-.19l-1.85-3.41v4.18c0,.29-.14,.43-.41,.43Z"/></g></g></svg>