<?xml version="1.0" encoding="UTF-8"?>
<svg xmlns="http://www.w3.org/2000/svg" id="Layer_2" viewBox="0 0 205.91 52.6"><defs><style>.cls-1{fill:#fff;}.cls-2{fill:#1c75bc;}</style></defs><g id="Layer_1-2"><path class="cls-1" d="M184.19,38.03c-.29,.03-.61,.09-.98,.19-.37,.1-.81,.15-1.33,.15-1.45,0-2.5-.38-3.14-1.15s-.96-1.91-.96-3.42v-9.75h5c1.2,0,1.8-.56,1.8-1.67s-.6-1.67-1.8-1.67h-2.28c-2.36-.16-2.69-2-2.73-2.74v-1.66c0-1.45-.71-2.18-2.14-2.18s-2.18,.73-2.18,2.18v17.83c0,2.54,.64,4.48,1.92,5.82,1.28,1.34,3.24,2.01,5.86,2.01,.46,0,.98-.04,1.56-.13,.58-.09,1.05-.2,1.39-.34,.4-.11,.68-.35,.83-.71,.16-.36,.24-.76,.24-1.22,0-.6-.1-1.01-.3-1.22-.2-.21-.46-.32-.77-.32Z"/><path class="cls-2" d="M50.83,32.64L33.68,15.5c-.3-.3-.69-.46-1.11-.46s-.81,.16-1.11,.46L14.33,32.64c-.3,.3-.46,.69-.46,1.11s.16,.81,.46,1.11l3.84,3.84c.3,.3,.69,.46,1.11,.46s.81-.16,1.11-.46l12.21-12.18,12.18,12.18c.3,.3,.69,.46,1.11,.46s.81-.16,1.11-.46l3.84-3.84c.3-.3,.46-.69,.46-1.11s-.16-.81-.46-1.11Z"/><path class="cls-2" d="M58.64,0H5.65C2.53,0,0,2.53,0,5.65V46.95c0,3.12,2.53,5.65,5.65,5.65H58.64c3.12,0,5.65-2.53,5.65-5.65V5.65c0-3.12-2.53-5.65-5.65-5.65Zm.66,45.6c0,.96-.78,1.73-1.73,1.73H6.72c-.96,0-1.73-.78-1.73-1.73V7c0-.96,.78-1.73,1.73-1.73H57.57c.96,0,1.73,.78,1.73,1.73V45.6Z"/><g><path class="cls-1" d="M86.51,42.14c-3.48,0-6.21-.98-8.21-2.93s-3-4.63-3-8.02c0-2.17,.44-4.09,1.33-5.76,.88-1.67,2.11-2.96,3.67-3.89,1.56-.93,3.36-1.39,5.39-1.39,2.92,0,5.23,.93,6.91,2.8,1.68,1.87,2.52,4.44,2.52,7.71,0,.98-.58,1.48-1.74,1.48h-13.82c.32,4.4,2.65,6.6,6.99,6.6,.87,0,1.78-.11,2.74-.33,.96-.22,1.88-.62,2.78-1.19,.61-.35,1.14-.47,1.59-.37,.45,.1,.77,.35,.98,.74s.24,.83,.11,1.3c-.13,.48-.47,.89-1.02,1.24-.99,.67-2.14,1.17-3.45,1.5-1.32,.33-2.57,.5-3.76,.5Zm-.65-18.9c-1.82,0-3.27,.56-4.34,1.69-1.07,1.13-1.72,2.64-1.95,4.52h11.86c-.09-1.97-.61-3.5-1.56-4.58-.96-1.09-2.29-1.63-4-1.63Z"/><path class="cls-1" d="M104.65,42.14c-2.26,0-3.96-.65-5.11-1.95-1.14-1.3-1.72-3.21-1.72-5.73V13.03c0-1.48,.72-2.22,2.17-2.22s2.22,.74,2.22,2.22v21.16c0,2.87,1.16,4.3,3.48,4.3,.26,0,.49-.01,.69-.04,.2-.03,.41-.04,.61-.04,.35-.03,.59,.07,.74,.28,.14,.22,.22,.66,.22,1.32,0,1.19-.55,1.87-1.65,2.04-.29,.03-.57,.05-.85,.07-.28,.01-.54,.02-.8,.02Z"/><path class="cls-1" d="M120.28,42.14c-3.48,0-6.21-.98-8.21-2.93s-3-4.63-3-8.02c0-2.17,.44-4.09,1.33-5.76,.88-1.67,2.11-2.96,3.67-3.89,1.56-.93,3.36-1.39,5.39-1.39,2.92,0,5.23,.93,6.91,2.8,1.68,1.87,2.52,4.44,2.52,7.71,0,.98-.58,1.48-1.74,1.48h-13.82c.32,4.4,2.65,6.6,6.99,6.6,.87,0,1.78-.11,2.74-.33,.96-.22,1.88-.62,2.78-1.19,.61-.35,1.14-.47,1.59-.37,.45,.1,.77,.35,.98,.74s.24,.83,.11,1.3c-.13,.48-.47,.89-1.02,1.24-.99,.67-2.14,1.17-3.45,1.5-1.32,.33-2.57,.5-3.76,.5Zm-.65-18.9c-1.82,0-3.27,.56-4.34,1.69-1.07,1.13-1.72,2.64-1.95,4.52h11.86c-.09-1.97-.61-3.5-1.56-4.58-.96-1.09-2.29-1.63-4-1.63Z"/><path class="cls-1" d="M140.06,42.05c-1.22,0-2.11-.65-2.69-1.95l-7.26-16.86c-.35-.78-.36-1.48-.04-2.09,.32-.61,.97-.91,1.96-.91,.52,0,.95,.13,1.28,.39,.33,.26,.63,.71,.89,1.35l5.95,14.68,6.08-14.68c.26-.64,.56-1.09,.89-1.35,.33-.26,.8-.39,1.41-.39,.78,0,1.32,.3,1.61,.91,.29,.61,.28,1.29-.04,2.04l-7.34,16.9c-.55,1.3-1.45,1.95-2.69,1.95Z"/><path class="cls-1" d="M159.38,42.14c-1.48,0-2.8-.29-3.95-.87-1.16-.58-2.08-1.36-2.76-2.35-.68-.98-1.02-2.1-1.02-3.35,0-1.56,.4-2.79,1.19-3.69,.8-.9,2.11-1.55,3.95-1.95,1.84-.41,4.32-.61,7.45-.61h1.48v-1.13c0-1.65-.35-2.84-1.04-3.56-.7-.72-1.84-1.09-3.43-1.09-.93,0-1.89,.12-2.89,.35-1,.23-2.04,.62-3.11,1.17-.61,.29-1.11,.33-1.5,.13-.39-.2-.66-.52-.8-.96-.15-.43-.13-.88,.04-1.35,.17-.46,.54-.81,1.09-1.04,1.27-.58,2.53-1.01,3.78-1.28,1.25-.27,2.42-.41,3.52-.41,2.9,0,5.04,.69,6.43,2.06,1.39,1.38,2.09,3.53,2.09,6.45v11.17c0,1.48-.68,2.22-2.04,2.22s-2.09-.74-2.09-2.22v-1.61c-.52,1.22-1.33,2.17-2.43,2.87-1.1,.7-2.42,1.04-3.95,1.04Zm.87-3.13c1.56,0,2.87-.55,3.91-1.65,1.04-1.1,1.56-2.49,1.56-4.17v-1.17h-1.43c-2.11,0-3.77,.1-4.97,.3-1.2,.2-2.06,.54-2.56,1.02-.51,.48-.76,1.14-.76,1.98,0,1.1,.38,1.99,1.13,2.67,.75,.68,1.8,1.02,3.13,1.02Z"/><path class="cls-1" d="M197.31,42.14c-3.48,0-6.21-.98-8.21-2.93s-3-4.63-3-8.02c0-2.17,.44-4.09,1.33-5.76,.88-1.67,2.11-2.96,3.67-3.89,1.56-.93,3.36-1.39,5.39-1.39,2.92,0,5.23,.93,6.91,2.8,1.68,1.87,2.52,4.44,2.52,7.71,0,.98-.58,1.48-1.74,1.48h-13.82c.32,4.4,2.65,6.6,6.99,6.6,.87,0,1.78-.11,2.74-.33,.96-.22,1.88-.62,2.78-1.19,.61-.35,1.14-.47,1.59-.37,.45,.1,.77,.35,.98,.74s.24,.83,.11,1.3c-.13,.48-.47,.89-1.02,1.24-.99,.67-2.14,1.17-3.45,1.5-1.32,.33-2.57,.5-3.76,.5Zm-.65-18.9c-1.82,0-3.27,.56-4.34,1.69-1.07,1.13-1.72,2.64-1.95,4.52h11.86c-.09-1.97-.61-3.5-1.56-4.58-.96-1.09-2.29-1.63-4-1.63Z"/></g></g></svg>