<svg id="Layer_1" data-name="Layer 1" xmlns="http://www.w3.org/2000/svg" viewBox="0 0 113.43 92.63"><defs><style>.cls-1{fill:#1b75bb;}</style></defs><g id="Layer_2" data-name="Layer 2"><g id="Layer_1-2" data-name="Layer 1-2"><path class="cls-1" d="M89.68,57.65,59.42,27.47a2.75,2.75,0,0,0-3.89,0h0L25.28,57.65a2.76,2.76,0,0,0,0,3.91l6.78,6.76a2.7,2.7,0,0,0,1.94.79,2.78,2.78,0,0,0,2-.79L57.5,46.87,79,68.32a2.81,2.81,0,0,0,3.92,0l6.77-6.76A2.76,2.76,0,0,0,89.68,57.65Z" transform="translate(0 -0.17)"/><path class="cls-1" d="M103.46.17H10A10,10,0,0,0,0,10.12V82.94A10,10,0,0,0,10,92.8h93.51a10,10,0,0,0,10-9.86V10.12a10,10,0,0,0-10-9.95Zm1.17,80.3a3,3,0,0,1-3,3H11.86a3,3,0,0,1-3-3v-68a3.05,3.05,0,0,1,3-3.05h89.71a3.05,3.05,0,0,1,3.06,3.05Z" transform="translate(0 -0.17)"/></g></g></svg>