<?xml version="1.0" encoding="UTF-8"?>
<svg xmlns="http://www.w3.org/2000/svg" viewBox="0 0 150.9 52.6"><script xmlns=""/><defs><style>.cls-1{fill:#fff;}</style></defs><g id="Layer_2" data-name="Layer 2"><g id="Layer_1-2" data-name="Layer 1"><path class="cls-1" d="M95.81,16.17a2,2,0,0,0-2.18,2.22v1.66a6.77,6.77,0,0,0-2.81-2.9,8.62,8.62,0,0,0-4.29-1.07,9.29,9.29,0,0,0-5,1.33,9,9,0,0,0-3.31,3.71A12.31,12.31,0,0,0,77,26.63a12.47,12.47,0,0,0,1.18,5.56,9,9,0,0,0,3.31,3.7,9.29,9.29,0,0,0,5,1.33,8.65,8.65,0,0,0,4.33-1.09,6.65,6.65,0,0,0,2.86-3v3.36q0,6.1-6.1,6.1a15.14,15.14,0,0,1-3.21-.37,14,14,0,0,1-3.64-1.41,1.3,1.3,0,0,0-1.28-.11,1.93,1.93,0,0,0-.92.89,1.64,1.64,0,0,0-.15,1.26,1.76,1.76,0,0,0,1,1.09,12.75,12.75,0,0,0,4,1.57,21.22,21.22,0,0,0,4.55.48q4.92,0,7.5-2.5C97.13,41.8,98,39.3,98,36V18.39A2,2,0,0,0,95.81,16.17ZM92,31.86a6.11,6.11,0,0,1-8.89,0,7.7,7.7,0,0,1-1.66-5.23,7.61,7.61,0,0,1,1.66-5.21,6.17,6.17,0,0,1,8.89,0,7.66,7.66,0,0,1,1.65,5.21A7.75,7.75,0,0,1,92,31.86Z"/><path class="cls-1" d="M104.42,16.26c-1.45,0-2.18.78-2.18,2.35v17c0,1.6.73,2.4,2.18,2.4s2.23-.8,2.23-2.4v-17C106.65,17,105.9,16.26,104.42,16.26Z"/><path class="cls-1" d="M129.06,16.17a2.23,2.23,0,0,0-1.41.39,3.17,3.17,0,0,0-.9,1.35l-6.1,14.73-6-14.73a3.25,3.25,0,0,0-.89-1.35,2.06,2.06,0,0,0-1.29-.39,2,2,0,0,0-2,.91,2.32,2.32,0,0,0,0,2.1l7.28,16.91a2.85,2.85,0,0,0,2.7,2,2.81,2.81,0,0,0,2.71-2l7.36-17a2.42,2.42,0,0,0,.05-2.05A1.63,1.63,0,0,0,129.06,16.17Z"/><path class="cls-1" d="M149.44,32.84a2.27,2.27,0,0,0-1.6.37,8.74,8.74,0,0,1-2.79,1.2,12.19,12.19,0,0,1-2.74.33q-6.54,0-7-6.63h13.86c1.16,0,1.75-.49,1.75-1.48a11.2,11.2,0,0,0-2.53-7.74,8.87,8.87,0,0,0-6.93-2.81,10.41,10.41,0,0,0-5.41,1.4,9.75,9.75,0,0,0-3.68,3.9A12.07,12.07,0,0,0,131,27.15a10.71,10.71,0,0,0,3,8q3,3,8.24,3a15.65,15.65,0,0,0,3.77-.5,11,11,0,0,0,3.46-1.51,2.24,2.24,0,0,0,1-1.24,1.77,1.77,0,0,0-.11-1.31A1.41,1.41,0,0,0,149.44,32.84Zm-12.19-12a5.71,5.71,0,0,1,4.36-1.7,5.05,5.05,0,0,1,4,1.63,7.25,7.25,0,0,1,1.57,4.6h-11.9A7.75,7.75,0,0,1,137.25,20.88Z"/><circle class="cls-1" cx="104.42" cy="9.24" r="2.97"/><path class="cls-1" d="M58.64,0h-53A5.65,5.65,0,0,0,0,5.65V47A5.65,5.65,0,0,0,5.65,52.6h53A5.65,5.65,0,0,0,64.29,47V5.65A5.65,5.65,0,0,0,58.64,0Zm.66,45.6a1.72,1.72,0,0,1-1.73,1.73H6.72A1.72,1.72,0,0,1,5,45.6V7A1.73,1.73,0,0,1,6.72,5.27H57.57A1.73,1.73,0,0,1,59.3,7Z"/><path class="cls-1" d="M34.64,26.2V21.66h4.64v4.17c0,.25,0,.46-.35.45H34.85A.48.48,0,0,1,34.64,26.2Z"/><path class="cls-1" d="M13.86,21.66h4.57v4.58H13.86Z"/><path class="cls-1" d="M23.62,26.24H19V21.66h4.59Z"/><path class="cls-1" d="M28.88,21.66v4.57H24.29V21.66Z"/><path class="cls-1" d="M44.48,26.24H39.89V21.66h4.59Z"/><path class="cls-1" d="M45.07,26.24V21.66h4.59v4.58Z"/><path class="cls-1" d="M34.05,21.68v4.56H29.47V21.68Z"/><path class="cls-1" d="M34.63,36.63V32.07h4.62v4.56Z"/><path class="cls-1" d="M34.61,21c0-1.44,0-2.83,0-4.23,0-.29.12-.37.39-.36h4.24V21Z"/><path class="cls-1" d="M23.63,26.86v4.62c-1.46,0-2.88,0-4.31,0-.11,0-.3-.23-.31-.36,0-1.4,0-2.79,0-4.24Z"/><path class="cls-1" d="M34.63,15.85V11.29h4.6v4.56Z"/><path class="cls-1" d="M39.88,15.83V11.28h4.59v4.55Z"/><path class="cls-1" d="M13.85,21V16.45h4.58V21Z"/><path class="cls-1" d="M24.28,16.45h4.58V21H24.28Z"/><path class="cls-1" d="M29.46,21V16.45H34V21Z"/><path class="cls-1" d="M39.89,16.44h4.57V21H39.89Z"/><path class="cls-1" d="M45.07,21V16.45h4.57V21Z"/><path class="cls-1" d="M28.87,11.28v4.56H24.28V11.28Z"/><path class="cls-1" d="M23.63,11.29v4.56H19.05V11.29Z"/><path class="cls-1" d="M39.9,26.85h4.6c0,1.47,0,2.92,0,4.36,0,.09-.23.26-.35.26-1.4,0-2.79,0-4.24,0Z"/><path class="cls-1" d="M29.47,26.85H34v4.59H29.47Z"/><path class="cls-1" d="M34.61,26.85h4.62v4.63c-1.44,0-2.87,0-4.3,0a.45.45,0,0,1-.3-.31C34.6,29.75,34.61,28.33,34.61,26.85Z"/><path class="cls-1" d="M28.88,32.06v4.56h-4.6V32.06Z"/><path class="cls-1" d="M29.48,32.05H34v4.58H29.48Z"/><path class="cls-1" d="M29.47,37.23H34v4.56H29.47Z"/><path class="cls-1" d="M19,21c0-1.46,0-2.86,0-4.26a.5.5,0,0,1,.32-.34c1.41,0,2.82,0,4.28,0V21Z"/><path class="cls-1" d="M24.27,31.48V26.86H28.9v2.86c0,.46,0,.93,0,1.4,0,.13-.2.35-.31.35C27.16,31.49,25.74,31.48,24.27,31.48Z"/></g></g></svg>