<?xml version="1.0" encoding="UTF-8"?>
<svg xmlns="http://www.w3.org/2000/svg" xmlns:xlink="http://www.w3.org/1999/xlink" version="1.1" id="Layer_1" x="0px" y="0px" viewBox="0 0 184 52.6" style="enable-background:new 0 0 184 52.6;" xml:space="preserve"><script xmlns=""/> <style type="text/css"> .st0{clip-path:url(#SVGID_00000061471577617980174010000014109792254929898168_);} .st1{fill:#474949;} .st2{fill:#6EB22F;} </style> <g id="Green" transform="translate(0 0)"> <g> <defs> <rect id="SVGID_1_" x="0" width="175" height="52.6"/> </defs> <clipPath id="SVGID_00000033332670427848961780000009843218397119540899_"> <use xlink:href="#SVGID_1_" style="overflow:visible;"/> </clipPath> <g id="Group_1381" style="clip-path:url(#SVGID_00000033332670427848961780000009843218397119540899_);"> <path id="Path_2756" class="st1" d="M86.5,43.6c-1.5,0-3-0.2-4.5-0.5c-1.4-0.3-2.7-0.8-3.9-1.6c-0.5-0.2-0.8-0.6-0.9-1.1 c-0.1-0.4-0.1-0.9,0.2-1.2c0.2-0.4,0.5-0.7,0.9-0.9c0.4-0.2,0.9-0.1,1.3,0.1c1.1,0.6,2.3,1.1,3.6,1.4c1,0.2,2.1,0.4,3.2,0.4 c4,0,6-2,6-6v-3.3c-0.6,1.3-1.6,2.3-2.8,3c-1.3,0.7-2.8,1.1-4.3,1.1c-1.7,0-3.5-0.4-5-1.3c-1.4-0.9-2.6-2.2-3.3-3.7 c-0.8-1.7-1.2-3.6-1.2-5.5c0-1.9,0.4-3.7,1.2-5.5c0.7-1.5,1.9-2.8,3.3-3.7c1.5-0.9,3.2-1.4,5-1.3c1.5,0,2.9,0.3,4.2,1.1 c1.2,0.6,2.2,1.6,2.8,2.9v-1.6c0-1.2,0.9-2.2,2.1-2.2c1.2,0,2.2,0.9,2.2,2.1c0,0,0,0.1,0,0.1v17.4c0,3.3-0.8,5.8-2.5,7.4 C92.2,42.8,89.7,43.6,86.5,43.6 M86.1,31.6c1.7,0.1,3.3-0.6,4.4-1.9c1.2-1.5,1.7-3.3,1.6-5.2c0.1-1.9-0.5-3.7-1.6-5.1 c-2.3-2.4-6.2-2.5-8.6-0.2c-0.1,0.1-0.1,0.1-0.2,0.2c-1.2,1.5-1.7,3.3-1.6,5.1c-0.1,1.9,0.5,3.7,1.6,5.2 C82.8,30.9,84.4,31.6,86.1,31.6"/> <path id="Path_2757" class="st1" d="M102.6,35.8c-1.1,0.2-2-0.6-2.2-1.6c0-0.2,0-0.4,0-0.6V16.4c0-1.5,0.7-2.2,2.1-2.2 c1.4,0,2.1,0.7,2.1,2.2v1.9c0.5-1.2,1.4-2.3,2.6-3c1.3-0.7,2.8-1.1,4.2-1.2c1.1-0.1,1.6,0.5,1.7,1.7c0.1,1.3-0.5,2-1.9,2.1 l-0.8,0.1c-3.8,0.4-5.7,2.3-5.7,5.9v9.8c0.2,1.1-0.6,2-1.6,2.2C102.9,35.8,102.7,35.8,102.6,35.8"/> <path id="Path_2758" class="st1" d="M124,35.9c-3,0.2-5.9-0.9-8.1-2.9c-2.1-2.1-3.1-5-3-8c0-2,0.4-3.9,1.3-5.7 c0.8-1.6,2.1-2.9,3.6-3.9c1.6-0.9,3.5-1.4,5.3-1.4c2.6-0.1,5.1,0.9,6.9,2.8c1.8,2.1,2.7,4.9,2.5,7.6c0,1-0.6,1.5-1.7,1.5h-13.7 c0.3,4.4,2.6,6.6,6.9,6.5c0.9,0,1.8-0.1,2.7-0.3c1-0.2,1.9-0.6,2.8-1.2c0.5-0.3,1-0.4,1.6-0.4c0.4,0.1,0.8,0.4,1,0.7 c0.2,0.4,0.2,0.9,0.1,1.3c-0.2,0.5-0.5,1-1,1.2c-1,0.7-2.2,1.2-3.4,1.5C126.5,35.7,125.2,35.9,124,35.9 M123.3,17.1 c-1.6-0.1-3.2,0.5-4.3,1.7c-1.1,1.2-1.8,2.8-1.9,4.5h11.8c0-1.6-0.5-3.3-1.6-4.5C126.3,17.6,124.8,17,123.3,17.1"/> <path id="Path_2759" class="st1" d="M145.6,35.9c-3,0.2-5.9-0.9-8.1-2.9c-2.1-2.1-3.1-5-3-8c0-2,0.4-3.9,1.3-5.7 c0.8-1.6,2.1-2.9,3.6-3.9c1.6-0.9,3.5-1.4,5.3-1.4c2.6-0.1,5.1,0.9,6.9,2.8c1.8,2.1,2.7,4.9,2.5,7.6c0,1-0.6,1.5-1.7,1.5h-13.7 c0.3,4.4,2.6,6.6,6.9,6.5c0.9,0,1.8-0.1,2.7-0.3c1-0.2,1.9-0.6,2.8-1.2c0.5-0.3,1-0.4,1.6-0.4c0.4,0.1,0.8,0.4,1,0.7 c0.2,0.4,0.2,0.9,0.1,1.3c-0.2,0.5-0.5,1-1,1.2c-1,0.7-2.2,1.2-3.4,1.5C148.1,35.7,146.8,35.9,145.6,35.9 M144.9,17.1 c-1.6-0.1-3.2,0.5-4.3,1.7c-1.1,1.2-1.8,2.8-1.9,4.5h11.8c0-1.6-0.5-3.3-1.6-4.5C147.9,17.6,146.4,17,144.9,17.1"/> <path id="Path_2760" class="st1" d="M158.4,35.8c-1.1,0.1-2-0.6-2.2-1.7c0-0.2,0-0.4,0-0.5V16.4c0-1.5,0.7-2.2,2.1-2.2 s2.1,0.7,2.1,2.2v1.6c0.7-1.2,1.7-2.2,3-2.9c1.3-0.7,2.7-1,4.2-1c5,0,7.5,2.8,7.5,8.4v11.1c0,1.2-1,2.2-2.2,2.2 c-1.2,0-2.2-1-2.2-2.2V22.8c0.1-1.4-0.3-2.8-1.1-4c-0.9-0.9-2.1-1.4-3.3-1.2c-1.6-0.1-3.1,0.5-4.2,1.7c-1.1,1.2-1.6,2.8-1.6,4.4 v10c0.2,1.1-0.6,2-1.6,2.2C158.7,35.8,158.5,35.8,158.4,35.8"/> <path id="Path_2761" class="st2" d="M29.8,40.9l1.4-10.2c0.1-0.5-0.3-0.9-0.7-0.9c0,0-0.1,0-0.1,0h-7.7c-0.5,0-0.8-0.4-0.8-0.8 c0-0.2,0-0.3,0.1-0.4l10.4-16.7c0.2-0.4,0.8-0.5,1.2-0.3c0.3,0.2,0.4,0.5,0.4,0.8l-1.5,11.2c-0.1,0.5,0.3,0.9,0.7,0.9 c0,0,0.1,0,0.1,0h7.3c0.5,0,0.8,0.4,0.8,0.8c0,0.2,0,0.3-0.1,0.5l-10,15.8c-0.2,0.4-0.8,0.5-1.2,0.3 C29.9,41.5,29.7,41.2,29.8,40.9"/> <path id="Path_2762" class="st2" d="M58.6,0h-53C2.5,0,0,2.5,0,5.7c0,0,0,0,0,0V47c0,3.1,2.5,5.6,5.7,5.6h53 c3.1,0,5.7-2.5,5.7-5.7c0,0,0,0,0,0V5.7C64.3,2.5,61.8,0,58.6,0C58.6,0,58.6,0,58.6,0 M59.3,45.6c0,1-0.8,1.7-1.7,1.7H6.7 c-1,0-1.7-0.8-1.7-1.7V7c0-1,0.8-1.7,1.7-1.7h50.9c1,0,1.7,0.8,1.7,1.7V45.6z"/> </g> </g> </g> <path class="st1" d="M182,14.1c-0.1,0-0.3,0-0.3,0.1l-1.1,1.5l-1.1-1.5c-0.1-0.1-0.2-0.1-0.3-0.1c-0.1,0-0.2,0.2-0.2,0.3v2.4 c0,0.2,0.1,0.3,0.3,0.3c0.2,0,0.3-0.1,0.3-0.3v-1.5l0.8,1.1c0.1,0.2,0.4,0.2,0.5,0l0.8-1.1v1.5c0,0.2,0.1,0.3,0.3,0.3 s0.3-0.1,0.3-0.3v-2.4C182.2,14.2,182.1,14.1,182,14.1z M178.3,14h-1.8c-0.2,0-0.3,0.1-0.3,0.3s0.1,0.3,0.3,0.3h0.6v2.1 c0,0.2,0.1,0.3,0.3,0.3s0.3-0.1,0.3-0.3v-2.1h0.6c0.2,0,0.3-0.1,0.3-0.3S178.4,14,178.3,14z"/> </svg>