<?xml version="1.0" encoding="UTF-8"?>
<svg xmlns="http://www.w3.org/2000/svg" id="Layer_2" viewBox="0 0 199.49 58.98"><script xmlns=""/><defs><style>.cls-1{fill:#fff;}.cls-2{fill:#d51e3e;}</style></defs><g id="Layer_1-2"><polygon class="cls-2" points="25.54 0 0 14.75 0 44.24 25.54 58.98 25.54 58.98 51.08 44.24 51.08 14.75 25.54 0"/><polygon class="cls-1" points="25.54 29.49 35.5 23.74 25.54 17.99 15.58 23.74 15.58 35.24 25.54 40.99 25.54 29.49"/><path class="cls-1" d="M67.87,7.17h17c3-.08,5.99,.33,8.86,1.2,2.09,.65,4,1.77,5.59,3.28,1.35,1.33,2.35,2.98,2.9,4.79,.56,1.9,.84,3.87,.82,5.85,0,2.03-.28,4.05-.86,6-.57,1.89-1.6,3.61-3,5-1.57,1.53-3.47,2.67-5.56,3.34-2.79,.86-5.7,1.25-8.62,1.17h-5.31v14.74h-11.82V7.17Zm11.82,20.9h5.21c2.54,0,4.31-.47,5.31-1.43,1.07-1.16,1.61-2.72,1.49-4.29,.13-1.55-.43-3.09-1.53-4.19-1.01-.89-2.79-1.34-5.33-1.34h-5.15v11.25Z"/><path class="cls-1" d="M117.57,19.18V52.54h-11.51V19.18h11.51Z"/><path class="cls-1" d="M143.7,34.94l11.37,17.6h-12.58l-5.59-9.15-5.72,9.15h-12.18l11.69-17-10.51-16.36h12.71l4.71,8,5-8h11.63l-10.53,15.76Z"/><path class="cls-1" d="M156.61,17.79V52.54h11.5V7.17c-10.73,0-11.46,8.73-11.5,10.62Z"/><path class="cls-1" d="M172.18,17.79V52.54h11.5V7.17c-10.68,0-11.46,8.73-11.5,10.62Z"/><circle class="cls-1" cx="111.81" cy="9.84" r="6.6"/><circle class="cls-2" cx="192.89" cy="46.3" r="6.6"/><g><path class="cls-1" d="M187.91,7.88h-1.41v-.85h3.81v.85h-1.41v3.84h-.98v-3.84Z"/><path class="cls-1" d="M190.91,7.03h1.17l1.17,3.5,1.2-3.5h1.14v4.69h-.9v-3.12l-1.07,3.12h-.76l-1.08-3.12v3.12h-.88V7.03Z"/></g></g></svg>