<?xml version="1.0" encoding="UTF-8"?>
<svg id="Layer_2" data-name="Layer 2" xmlns="http://www.w3.org/2000/svg" viewBox="0 0 161.6 152.99">
  <defs>
    <style>
      .cls-1 {
        fill-rule: evenodd;
      }
    </style>
  </defs>
  <g id="Layer_1-2" data-name="Layer 1">
    <g>
      <path class="cls-1" d="M96.92,129.03c22.73-10.9,38.42-34.12,38.42-60.99C135.33,30.69,105.04,.42,67.67,.42S0,30.69,0,68.04s30.3,67.62,67.67,67.62c1.25,0,2.5-.03,3.74-.1,5.47,4.9,10.54,8.64,15.19,11.21,7.51,4.15,15.77,6.23,24.79,6.23,6.88,0,13.24-1.34,19.06-4.02,5.82-2.68,10.92-6.64,15.3-11.88l-11.27-13.79c-6.38,7.15-13.89,10.73-22.53,10.73-4.01,0-7.76-.89-11.27-2.68-1.25-.64-2.5-1.41-3.76-2.32Zm-29.25-14.18c-25.87,0-46.85-20.96-46.85-46.81S41.79,21.22,67.67,21.22s46.85,20.96,46.85,46.81-20.97,46.81-46.85,46.81Z"/>
      <path class="cls-1" d="M159.66,3.71l.02,7.29h1.92V0h-1.69l-4.26,7.29-4.34-7.29h-1.67V11h1.94V3.8l3.59,5.94h.9l3.59-6.04Zm-20.82-1.98h3.62V11h2.03V1.73h3.62V0h-9.27V1.73Z"/>
    </g>
  </g>
</svg>