<?xml version="1.0" encoding="UTF-8"?>
<svg id="Layer_2" data-name="Layer 2" xmlns="http://www.w3.org/2000/svg" viewBox="0 0 327.77 97.4">
  <defs>
    <style>
      .cls-1, .cls-2 {
        fill: #fff;
      }

      .cls-3 {
        fill: #5ee9ae;
      }

      .cls-2, .cls-4 {
        fill-rule: evenodd;
      }

      .cls-4 {
        fill: #e2e2e2;
      }
    </style>
  </defs>
  <g id="Layer_1-2" data-name="Layer 1">
    <g>
      <path class="cls-4" d="M325.79,11.77l.02,7.44h1.96l-.02-11.23h-1.7l-4.35,7.44-4.43-7.44h-1.7v11.23h1.98v-7.35l3.66,6.06h.92l3.66-6.16Zm-21.25-2.02h3.7v9.47h2.07V9.75h3.7v-1.76h-9.46v1.76Z"/>
      <path class="cls-2" d="M61.87,82.1c14.51-6.96,24.52-21.78,24.52-38.94C86.39,19.33,67.05,0,43.2,0S0,19.33,0,43.17s19.34,43.17,43.2,43.17c.8,0,1.6-.02,2.39-.06,3.49,3.13,6.73,5.52,9.7,7.16,4.79,2.65,10.07,3.97,15.82,3.97,4.39,0,8.45-.86,12.17-2.57,3.72-1.71,6.97-4.24,9.77-7.58l-7.19-8.8c-4.08,4.57-8.87,6.85-14.38,6.85-2.56,0-4.95-.57-7.19-1.71-.8-.41-1.6-.9-2.4-1.48Zm-18.67-9.05c-16.52,0-29.9-13.38-29.9-29.88S26.68,13.28,43.2,13.28s29.9,13.38,29.9,29.88-13.39,29.88-29.9,29.88Z"/>
      <path class="cls-2" d="M311.76,59.09c.15-1.89,.23-3.34,.23-4.37,0-6.45-1.35-12.14-4.04-17.06-2.69-4.92-6.44-8.74-11.23-11.45-4.8-2.72-10.24-4.07-16.33-4.07s-11.7,1.38-16.62,4.13c-4.91,2.75-8.76,6.59-11.53,11.51-2.77,4.92-4.15,10.45-4.15,16.59s1.42,11.79,4.27,16.71c2.85,4.92,6.89,8.76,12.11,11.51,5.23,2.75,11.27,4.13,18.14,4.13,5.38,0,10.22-.87,14.51-2.6,3.86-1.56,7.26-3.9,9.92-6.79,.68-.9-.18-1.89-.51-2.28,0,0-.01-.01-.02-.02-1.59-1.85-2.95-3.5-4.06-4.85-.61-.75-1.15-1.4-1.61-1.94-.64-.76-1.23-.62-2.11,.24-4.21,3.67-9.61,5.73-15.76,5.73-5.38,0-9.89-1.36-13.52-4.07-3.63-2.72-5.87-6.4-6.73-11.04h49.04Zm-43.24-20.96c3.24-2.79,7.2-4.19,11.88-4.19s8.74,1.42,11.94,4.25c3.2,2.83,5.11,6.53,5.73,11.1h-35.46c.7-4.64,2.67-8.36,5.91-11.16Z"/>
      <path class="cls-2" d="M172.78,53.13c0,18.34,14.88,33.2,33.23,33.2s33.23-14.87,33.23-33.2-15.08-32.32-34.86-30.66c-7.23,.61-13.39,3.53-18.3,7.48V6.65c0-3.67-2.98-6.65-6.65-6.65s-6.65,2.98-6.65,6.65V53.13Zm34.34,22.14c11.62,0,21.04-9.42,21.04-21.03s-9.42-21.03-21.04-21.03-21.04,9.42-21.04,21.03,9.42,21.03,21.04,21.03Z"/>
      <path class="cls-1" d="M128.59,86.23c-9.83,0-17.48-2.7-22.96-8.11-3.41-3.36-5.75-7.96-7.04-13.22h16.4c2.25,5.44,6.82,7.85,13.69,7.85,4.98,0,8.78-1.48,11.4-4.44,2.62-2.96,3.93-7.6,3.93-13.92,0,0-.02-27.94,0-28.82,.02-.88,1.02-1.32,1.02-1.32h13.43s1.28,.2,1.28,1.32v29.41c0,10.03-2.74,17.74-8.21,23.15-5.47,5.4-13.13,8.11-22.96,8.11Z"/>
      <rect class="cls-3" x="97.47" y="24.35" width="31.01" height="30.99" rx="5.06" ry="5.06"/>
    </g>
  </g>
</svg>