<svg xmlns="http://www.w3.org/2000/svg" viewBox="0 0 64.3 52.6"><defs><style>.cls-1{fill:#4e8cca;}</style></defs><g id="Layer_2" data-name="Layer 2"><g id="Layer_1-2" data-name="Layer 1"><path class="cls-1" d="M58.64,0h-53A5.65,5.65,0,0,0,0,5.65H0V47A5.65,5.65,0,0,0,5.65,52.6h53A5.66,5.66,0,0,0,64.3,47h0V5.65A5.66,5.66,0,0,0,58.64,0Zm.67,45.6a1.74,1.74,0,0,1-1.74,1.73H6.72A1.72,1.72,0,0,1,5,45.6H5V7A1.73,1.73,0,0,1,6.72,5.27H57.57A1.73,1.73,0,0,1,59.31,7Z"/><polygon class="cls-1" points="45.27 14.54 27.51 14.54 27.51 10.51 15.87 19.34 27.51 28.16 27.51 24.14 45.27 24.14 45.27 14.54"/><polygon class="cls-1" points="15.9 29.69 33.66 29.69 33.66 25.66 45.3 34.49 33.66 43.32 33.66 39.29 15.9 39.29 15.9 29.69"/></g></g></svg>